<!--?xml version="1.0" encoding="utf-8"?-->
<!-- Generator: Adobe Illustrator 18.1.1, SVG Export Plug-In . SVG Version: 6.00 Build 0)  -->

<svg version="1.1" id="_x32_" xmlns="http://www.w3.org/2000/svg" xmlns:xlink="http://www.w3.org/1999/xlink" x="0px" y="0px" viewBox="0 0 512 512" style="width: 512px; height: 512px; opacity: 1;" xml:space="preserve">
<style type="text/css">
	.st0{fill:#4B4B4B;}
</style>
<g>
	<rect x="18.301" y="375.779" class="st0" width="97.267" height="136.174" style="fill: rgb(0, 0, 0);"></rect>
	<path class="st0" d="M309.389,84.026c-5.158,6.906-7.98,15.274-7.98,24.022c0,10.8,4.18,20.822,11.769,28.402
		c7.59,7.588,17.706,11.768,28.401,11.768c10.705,0,20.822-4.18,28.402-11.664c14.305-14.305,15.568-36.77,3.694-52.528H309.389z" style="fill: rgb(0, 0, 0);"></path>
	<path class="st0" d="M290.61,235.664V512h97.267V237.411c-14.685,5.254-30.338,7.98-46.297,7.98
		C323.884,245.391,306.567,241.99,290.61,235.664z" style="fill: rgb(0, 0, 0);"></path>
	<path class="st0" d="M484.887,217.806l-52.48-51.121c11.194-17.298,17.25-37.464,17.25-58.598
		c0-28.914-11.237-56.062-31.631-76.456S370.484,0,341.571,0c-28.914,0-56.071,11.237-76.456,31.631
		c-20.404,20.394-31.631,47.541-31.631,76.456c0,28.914,11.228,56.07,31.622,76.464c20.394,20.394,47.551,31.63,76.465,31.63
		c21.139,0,41.304-6.06,58.611-17.268l51.098,52.472c9.528,11.483,23.586,12.167,34.452,1.301
		C496.608,241.829,496.371,227.305,484.887,217.806z M341.571,166.095c-15.492,0-30.064-6.041-41.025-16.994
		c-10.952-10.951-16.984-25.523-16.984-41.014c0-15.493,6.032-30.054,16.984-41.007c10.961-10.951,25.523-16.992,41.025-16.992
		c15.482,0,30.054,6.041,41.006,16.992c22.616,22.616,22.616,59.414,0,82.031C371.624,160.063,357.063,166.095,341.571,166.095z" style="fill: rgb(0, 0, 0);"></path>
	<rect x="154.436" y="298.013" class="st0" width="97.267" height="213.987" style="fill: rgb(0, 0, 0);"></rect>
</g>
</svg>
