<?xml version="1.0" encoding="UTF-8"?>
<svg id="_x32_" xmlns="http://www.w3.org/2000/svg" version="1.1" viewBox="0 0 512 512">
  <!-- Generator: Adobe Illustrator 29.8.3, SVG Export Plug-In . SVG Version: 2.1.1 Build 3)  -->
  <defs>
    <style>
      .st0 {
        fill: #fff;
      }
    </style>
  </defs>
  <path class="st0" d="M495.27,423.56s-68.54-59.95-84.94-76.33c-24.06-23.94-33.69-35.47-25.2-54.93,37.15-75.78,24.3-169.85-38.72-232.86-79.24-79.25-207.74-79.25-286.98,0-79.25,79.26-79.25,207.73,0,287,62.99,62.99,157.09,75.84,232.84,38.69,19.47-8.48,31.02,1.14,54.95,25.21,16.38,16.39,76.31,84.94,76.31,84.94,31.09,31.07,55.01,11.95,69.37-2.39,14.33-14.35,33.46-38.26,2.37-69.34ZM286.02,286.01c-45.9,45.87-120.29,45.87-166.17,0-45.88-45.87-45.88-120.28,0-166.15,45.88-45.87,120.27-45.87,166.17,0,45.88,45.87,45.88,120.28,0,166.15Z"/>
</svg>