<?xml version="1.0" encoding="UTF-8"?>
<svg id="_x31_0" xmlns="http://www.w3.org/2000/svg" version="1.1" viewBox="0 0 512 512">
  <!-- Generator: Adobe Illustrator 29.8.3, SVG Export Plug-In . SVG Version: 2.1.1 Build 3)  -->
  <polygon points="257.1 94.29 257.1 94.45 340.31 94.45 340.31 204.81 376.38 204.81 376.38 58.99 376.38 58.54 376.38 58.54 376.38 58.38 257.1 58.38 257.1 94.18 257.1 94.29"/>
  <polygon points="376.38 307.35 376.38 307.19 340.31 307.19 340.31 417.55 257.1 417.55 257.1 453.35 257.1 453.45 257.1 453.45 257.1 453.62 376.38 453.62 376.38 307.8 376.38 307.35"/>
  <path d="M509.57,251.08l-84.65-64.09c-1.13-.88-2.42-1.24-3.66-1.24-3.19,0-6.18,2.52-6.18,6.18v27.31c0,3.4-2.79,6.18-6.18,6.18h-87.13c-3.4,0-6.13,2.73-6.13,6.13v48.89c0,3.4,2.73,6.13,6.13,6.13h87.13c3.4,0,6.18,2.78,6.18,6.18v27.31c0,3.66,2.99,6.18,6.18,6.18,1.24,0,2.53-.36,3.66-1.24l84.65-64.09c3.24-2.47,3.24-7.37,0-9.84Z"/>
  <path d="M204.65,11.44c-2.42.05-4.95.36-7.47,1.08L38.33,58.38l-10.31,2.99-12.16,3.5c-9.43,2.73-15.87,11.34-15.87,21.18v339.9c0,9.84,6.44,18.44,15.87,21.17l12.16,3.5,10.31,2.99,158.85,45.86c2.53.72,5.05,1.08,7.47,1.08,14.27,0,26.69-11.59,26.69-26.79V38.24c0-15.2-12.42-26.79-26.69-26.79ZM159.51,277.36v-42.66c0-2.83,2.27-5.05,5.05-5.05h16.75c2.78,0,5,2.21,5,5.05v42.66c0,2.78-2.21,5-5,5h-16.75c-2.78,0-5.05-2.21-5.05-5Z"/>
</svg>