<svg width="490" height="513" viewBox="0 0 490 513" fill="none" xmlns="http://www.w3.org/2000/svg">
<path d="M227.629 6.06738C237.669 -2.02228 251.988 -2.02234 262.028 6.06738L304.618 40.3779C309.858 44.6079 316.469 46.748 323.188 46.418L377.818 43.6875C390.688 43.0475 402.278 51.4674 405.648 63.9072L419.938 116.708C421.699 123.198 425.778 128.828 431.408 132.508L477.219 162.407C488.009 169.457 492.439 183.068 487.839 195.128L468.368 246.237C465.968 252.527 465.968 259.478 468.368 265.758L468.358 265.768L487.828 316.888C492.428 328.938 487.999 342.557 477.209 349.607L431.398 379.518C425.768 383.188 421.689 388.808 419.929 395.308L405.629 448.107C402.259 460.567 390.669 468.978 377.799 468.338L323.169 465.607C316.449 465.267 309.839 467.418 304.599 471.638L262.009 505.947C251.969 514.037 237.648 514.037 227.608 505.947L185.019 471.638C179.779 467.418 173.168 465.267 166.448 465.607L111.818 468.338C98.9484 468.978 87.3583 460.567 83.9883 448.107L69.6982 395.308C67.9382 388.808 63.8585 383.188 58.2285 379.518L12.4287 349.607C1.63871 342.557 -2.79117 328.928 1.79883 316.888L21.2783 265.768C23.6783 259.488 23.6782 252.538 21.2783 246.248L1.79883 195.138C-2.79117 183.078 1.63874 169.468 12.4287 162.418L58.2383 132.508C63.8682 128.828 67.9489 123.198 69.709 116.708L83.998 63.9072C87.3681 51.4675 98.9584 43.0477 111.828 43.6875L166.459 46.418C173.179 46.7478 179.788 44.5977 185.028 40.3779L227.629 6.06738Z" fill="#B7B7B7"/>
</svg>
