<?xml version="1.0" encoding="UTF-8"?>
<svg id="_x32_" xmlns="http://www.w3.org/2000/svg" version="1.1" viewBox="0 0 512 512">
  <!-- Generator: Adobe Illustrator 29.8.3, SVG Export Plug-In . SVG Version: 2.1.1 Build 3)  -->
  <path d="M337.59,147.28c23.42-7.69,42.75-20.22,56.57-35.32,6.9-7.56,12.43-15.78,16.3-24.47,3.86-8.68,6.06-17.87,6.06-27.16,0-6.17-.99-12.37-3.04-18.32-2.3-6.64-5.64-12.67-9.77-17.89-6.19-7.85-14.12-13.9-22.89-17.96-8.77-4.06-18.4-6.15-28.23-6.15-7.2,0-14.49,1.13-21.59,3.47-10.66,3.5-20.88,9.76-29.49,18.77-8.63,9.02-15.62,20.74-20.21,34.9-6,18.42-23.95,60.23-24.45,61.25h-1.71c-.51-1.03-18.45-42.83-24.45-61.25-3.07-9.45-7.18-17.81-12.15-24.99-7.46-10.79-16.85-18.93-27.08-24.26C181.21,2.55,170.18,0,159.39,0c-13.09,0-25.87,3.73-36.68,10.87-5.4,3.57-10.31,8.01-14.42,13.23-4.14,5.22-7.48,11.25-9.78,17.89-2.07,5.96-3.04,12.16-3.04,18.32,0,6.18.97,12.34,2.76,18.32,3.15,10.47,8.75,20.4,16.25,29.47,11.28,13.61,26.87,25.33,45.82,33.74,18.94,8.4,41.26,13.48,65.91,13.48,13.97,0,29.24.12,29.78,0,.54.12,15.81,0,29.79,0,18.77,0,36.21-2.93,51.82-8.05ZM317.05,48.46c4.93-7.12,10.68-11.97,16.75-15.14,6.07-3.17,12.51-4.64,18.8-4.65,7.63,0,14.98,2.21,20.86,6.12,2.97,1.96,5.57,4.33,7.74,7.08,2.17,2.76,3.93,5.9,5.18,9.5.98,2.82,1.45,5.78,1.46,8.94,0,3.17-.5,6.55-1.56,10.09-1.85,6.21-5.46,12.91-10.87,19.43-8.08,9.78-20.14,19.07-35.35,25.81-15.22,6.76-33.56,11.01-54.28,11.01-1.11,0-2.19-.02-3.23-.05,7.53-12.63,16.64-31.75,26.02-60.6,2.29-7.01,5.19-12.78,8.48-17.54ZM127.74,75.84c-2.46-5.53-3.59-10.78-3.59-15.52,0-3.17.48-6.12,1.46-8.93v-.02c1.25-3.6,3.01-6.74,5.19-9.5,3.25-4.13,7.49-7.41,12.41-9.69,4.91-2.28,10.47-3.52,16.19-3.52,4.19,0,8.45.66,12.62,2.04,6.26,2.07,12.31,5.71,17.74,11.37,5.41,5.66,10.24,13.4,13.67,23.93,9.38,28.84,18.49,47.96,26.02,60.6-1.05.02-2.12.04-3.23.04-15.78,0-30.19-2.46-42.89-6.62-19.04-6.23-34.24-16.35-44.33-27.41-5.06-5.53-8.82-11.27-11.26-16.78Z"/>
  <polygon points="271.91 177.96 271.91 273.39 454.83 273.39 454.83 271.97 454.83 240.63 454.83 177.96 271.91 177.96"/>
  <polygon points="57.17 240.63 57.17 271.97 57.17 273.39 240.09 273.39 240.09 177.96 57.17 177.96 57.17 240.63"/>
  <path d="M271.91,512h121.93c24.9,0,45.09-20.19,45.09-45.09v-161.71h-167.02v206.8Z"/>
  <path d="M73.07,466.91c0,24.9,20.19,45.09,45.09,45.09h121.93v-206.8H73.07v161.71Z"/>
</svg>