<?xml version="1.0" encoding="UTF-8"?>
<svg id="_x32_" xmlns="http://www.w3.org/2000/svg" version="1.1" viewBox="0 0 512 512">
  <!-- Generator: Adobe Illustrator 29.8.3, SVG Export Plug-In . SVG Version: 2.1.1 Build 3)  -->
  <path d="M478.05,400.32c-19.36-18.42-81.44-56.05-97.11-61.13-15.66-5.1-36.34,8.67-43.34,27.38-7.01,18.71-16.85,16.02-16.85,16.02,0,0-37.24-17.47-101.5-93.73s-75.17-115.92-75.17-115.92c0,0-.98-10.16,18.66-13.9,19.62-3.73,36.69-21.77,34.32-38.07-2.34-16.3-28.9-83.88-43.78-106.06C138.38-7.26,105.15.61,97.59,5.15c-7.57,4.54-86.76,45.69-71.84,135.49,14.93,89.8,57.26,164.29,105.9,222.02,48.64,57.73,114.88,112.09,200.86,142.02,85.96,29.93,139.96-41.14,145.7-47.83,5.75-6.68,19.14-38.09-.17-56.54Z"/>
</svg>