<?xml version="1.0" encoding="UTF-8"?>
<svg id="_x32_" xmlns="http://www.w3.org/2000/svg" version="1.1" viewBox="0 0 512 512">
  <!-- Generator: Adobe Illustrator 29.8.3, SVG Export Plug-In . SVG Version: 2.1.1 Build 3)  -->
  <path d="M509.53,289.88c-1.81-5.69-4.5-10.89-7.83-15.45-.55-.8-1.06-1.47-1.67-2.2-1.06-1.73-2.28-3.34-3.69-4.94l-8.28-7.3-37.62-33.08-20.25-17.78,38.62-34.23c5.81-5.16,6.34-14.03,1.2-19.84-5.08-5.83-13.97-6.36-19.8-1.22l-41.31,36.58-116.7,103.28c-7.36,6.48-16.72,9.95-26.36,9.95-2.8,0-5.59-.27-8.41-.88l-66.72-14.77-80.56-17.78-56.47-12.5-8.09-1.8c-2.55-.88-4.81-2.02-6.81-3.48-3.22-2.34-5.75-5.34-7.5-8.83-1.8-3.47-2.75-7.36-2.75-11.3,0-2.41.41-4.95,1.16-7.42.88-2.67,2.12-5.08,3.67-7.2,2.28-3.22,5.34-5.77,8.81-7.5,3.42-1.8,7.3-2.75,11.23-2.75.67,0,1.34.08,2,.08l58.23,12.56,135.05,29.22c16.7,3.67,34.16-.88,46.98-12.23l83.02-73.12,84.78-74.67c7.62-6.77,10.83-17.19,8.22-27.02-2.53-9.89-10.44-17.45-20.39-19.59l-10.56-2.27-77.02-16.66L266.19,2.69c-16.7-3.67-34.16.86-46.98,12.23l-130.3,114.45-39.17,34.42-34.08,29.95c-1.42,1.59-2.62,3.2-3.69,4.94-.61.73-1.14,1.41-1.67,2.2-3.34,4.56-6.02,9.77-7.83,15.45-1.65,5.28-2.47,10.69-2.47,15.97,0,11.44,3.67,22.33,10.16,31.28,3.28,4.55,7.22,8.56,11.84,11.91,4.53,3.34,9.75,6.02,15.44,7.75l.59.2,59.44,13.03,11.5,10.23-1.69,1.47-39.16,34.44-34.1,29.94c-1.41,1.61-2.61,3.22-3.69,4.95-.59.73-1.12,1.41-1.66,2.2-3.34,4.55-6.03,9.75-7.83,15.44-1.67,5.28-2.48,10.7-2.48,15.98,0,11.42,3.69,22.31,10.16,31.28,3.28,4.55,7.22,8.56,11.84,11.91,4.55,3.34,9.77,6.02,15.44,7.75l.59.2,59.44,13.03,56.3,12.3,97.73,21.39c4.75,1.06,9.55,1.55,14.38,1.55,16.38,0,32.34-5.89,44.91-16.92l3.34-2.94,116.06-102.75,38.64-34.23c1.73-1.53,2.95-3.33,3.73-5.34,4.22-3.2,7.91-7.02,10.91-11.23,6.47-8.95,10.16-19.84,10.16-31.28,0-5.28-.81-10.69-2.47-15.97ZM427.31,369.23l-116.73,103.28c-7.36,6.5-16.7,9.97-26.33,9.97-2.81,0-5.62-.28-8.44-.88l-66.7-14.78-80.55-17.78-56.5-12.48-8.09-1.81c-2.53-.88-4.81-2-6.81-3.48-3.2-2.33-5.75-5.34-7.5-8.81-1.8-3.48-2.73-7.36-2.73-11.3,0-2.41.41-4.95,1.14-7.42.88-2.67,2.14-5.08,3.69-7.22,2.27-3.22,5.34-5.75,8.81-7.48,3.41-1.81,7.28-2.75,11.23-2.75.67,0,1.33.06,2,.06l58.23,12.58,135.03,29.2c16.72,3.69,34.16-.86,47-12.23l36.09-31.75,80.16-17.58-3,2.67ZM480.72,317.16c-1.75,3.47-4.28,6.48-7.5,8.81-2,1.47-4.28,2.61-6.81,3.48l-72.41,16.03-139.44,30.83c-2.75.59-5.62.86-8.42.86-9.62,0-18.98-3.47-26.34-9.95l-66.05-58.42,97.73,21.39c4.75,1.06,9.56,1.53,14.36,1.53,16.39,0,32.38-5.88,44.94-16.92l3.34-2.94,142.52-30.81c.67,0,1.28-.06,1.95-.06,2.53,0,5,.39,7.34,1.14,1.34.39,2.67.92,3.94,1.59,3.42,1.73,6.5,4.28,8.84,7.5,1.53,2.12,2.72,4.53,3.59,7.2.8,2.48,1.16,5.02,1.16,7.42,0,3.95-.97,7.83-2.75,11.31Z"/>
</svg>