<?xml version="1.0" encoding="UTF-8"?>
<svg id="_x32_" xmlns="http://www.w3.org/2000/svg" version="1.1" viewBox="0 0 512 512">
  <!-- Generator: Adobe Illustrator 29.8.3, SVG Export Plug-In . SVG Version: 2.1.1 Build 3)  -->
  <path d="M92.76,322.41h326.48c25.64,0,46.44-20.8,46.44-46.42V93.64c0-25.64-20.8-46.42-46.44-46.42H92.76c-25.64,0-46.42,20.78-46.42,46.42v182.34c0,25.62,20.78,46.42,46.42,46.42ZM79.09,93.64c0-7.53,6.12-13.67,13.67-13.67h326.48c7.53,0,13.66,6.14,13.66,13.67v177.2c0,7.55-6.12,13.67-13.66,13.67H92.76c-7.55,0-13.67-6.12-13.67-13.67,0,0,0-177.2,0-177.2Z"/>
  <path d="M507.1,415.89l-42.47-59.61c-3.33-5.08-9.47-8.23-16.14-8.23H63.49c-6.66,0-12.81,3.16-16.11,8.23l-42.49,59.61c-6.58,10.11-6.53,22.53.12,32.61,6.64,10.08,18.89,16.28,32.12,16.28h437.7c13.25,0,25.48-6.2,32.12-16.28,6.66-10.08,6.7-22.5.13-32.61ZM266.52,433.08h-67.12l15.94-24.52h81.34l15.91,24.52h-46.06Z"/>
</svg>