<svg width="490" height="513" viewBox="0 0 490 513" fill="none" xmlns="http://www.w3.org/2000/svg">
<path d="M468.368 265.758C465.968 259.478 465.968 252.528 468.368 246.238L487.838 195.128C492.438 183.068 488.008 169.458 477.218 162.408L431.408 132.507C425.778 128.827 421.698 123.197 419.938 116.707L405.648 63.9075C402.278 51.4675 390.688 43.0475 377.818 43.6875L323.188 46.4175C316.468 46.7475 309.858 44.6075 304.618 40.3775L262.028 6.0675C251.988 -2.0225 237.668 -2.0225 227.628 6.0675L185.028 40.3775C179.788 44.5975 173.178 46.7475 166.458 46.4175L111.828 43.6875C98.9583 43.0475 87.3683 51.4675 83.9983 63.9075L69.7083 116.707C67.9483 123.197 63.8683 128.827 58.2383 132.507L12.4283 162.417C1.63827 169.467 -2.79174 183.077 1.79826 195.137L21.2783 246.247C23.6783 252.537 23.6783 259.487 21.2783 265.767L1.79826 316.888C-2.79174 328.928 1.63827 342.557 12.4283 349.607L58.2283 379.517C63.8583 383.187 67.9383 388.807 69.6983 395.307L83.9883 448.107C87.3583 460.567 98.9483 468.977 111.818 468.337L166.448 465.607C173.168 465.267 179.778 467.418 185.018 471.638L227.608 505.948C237.648 514.038 251.968 514.038 262.008 505.948L304.598 471.638C309.838 467.418 316.448 465.267 323.168 465.607L377.798 468.337C390.668 468.977 402.258 460.567 405.628 448.107L419.928 395.307C421.688 388.807 425.768 383.187 431.398 379.517L477.208 349.607C487.998 342.557 492.428 328.938 487.828 316.888L468.358 265.767L468.368 265.758ZM237.888 370.668L203.318 371.997L108.488 254.117L147.488 216.887L213.068 291.337C213.068 291.337 285.748 177.878 357.538 137.988L380.138 148.628C380.138 148.628 282.198 237.697 237.878 370.658L237.888 370.668Z" fill="#FFB71D"/>
</svg>
