<?xml version="1.0" encoding="UTF-8"?>
<svg id="_x32_" xmlns="http://www.w3.org/2000/svg" version="1.1" viewBox="0 0 512 512">
  <!-- Generator: Adobe Illustrator 29.8.3, SVG Export Plug-In . SVG Version: 2.1.1 Build 3)  -->
  <path d="M320.71,0L37.04,69.97v417.63l283.41,24.4,154.52-26.26V62.57L320.71,0ZM290.35,471.74l-92.58-7.97v-79.43l-55.09-.68v75.36l-68.11-5.87V99.37l215.78-53.22v425.6Z"/>
  <polygon points="271.25 76.93 226.54 86.32 226.54 138.96 271.25 131.25 271.25 76.93"/>
  <polygon points="118.57 112.03 87.42 118.62 87.42 164.82 118.57 159.47 118.57 112.03"/>
  <polygon points="190.01 95.94 150.43 104.23 150.43 153.03 190.01 146.2 190.01 95.94"/>
  <polygon points="118.58 203.18 87.42 207.45 87.42 253.72 118.58 250.62 118.58 203.18"/>
  <polygon points="190.01 192.79 150.43 198.15 150.43 246.95 190.01 243.05 190.01 192.79"/>
  <polygon points="271.25 181.04 226.54 187.1 226.54 238.91 271.25 234.51 271.25 181.04"/>
  <polygon points="271.25 286.14 226.54 288.89 226.54 340.7 271.25 339.6 271.25 286.14"/>
  <polygon points="190.01 291.48 150.43 293.91 150.43 342.71 190.01 341.74 190.01 291.48"/>
  <polygon points="118.57 296.2 87.42 298.14 87.42 344.41 118.57 343.63 118.57 296.2"/>
</svg>