<?xml version="1.0" encoding="UTF-8"?>
<svg id="_レイヤー_1" xmlns="http://www.w3.org/2000/svg" version="1.1" viewBox="0 0 512 512">
  <!-- Generator: Adobe Illustrator 29.8.3, SVG Export Plug-In . SVG Version: 2.1.1 Build 3)  -->
  <defs>
    <style>
      .st0 {
        fill: #45291c;
      }

      .st1 {
        fill: #6f8b93;
      }

      .st2 {
        fill: #708d94;
      }

      .st3 {
        fill: #7d543b;
      }

      .st4 {
        fill: #482d1f;
      }

      .st5 {
        fill: #fff;
      }

      .st6 {
        fill: #492d1f;
      }

      .st7 {
        fill: #472b1d;
      }

      .st8 {
        fill: #fcf5e4;
      }
    </style>
  </defs>
  <path class="st4" d="M233.83,476.7c-2.22,21.06-30.58,24.65-47.17,22.49-10.98-1.43-21.19-6.39-19.76-19.18,1.2-10.65,15.2-17.61,23.99-21.1v-13.81c-25.53-8.97-46.07-24.93-62.9-45.82-1.05-1.3-3.98-6.01-4.8-6.59-1.2-.86-7.14-2-8.98-2.41-4.9-1.11-10.51-1.53-15.19-2.84-2.52-.7-5.06-1.78-6.02-4.42-1.64-4.49-2.03-10.65-3.69-15.3-.6-.81-2.96-.36-4.16-.58-22.18-4.09-30.81-40.38-10.77-52.43l-7.51-32.79c-.98-7.67,2.68-9.64,9.84-9.14-1.12-3.14-2.48-5.44-.21-8.51,1.59-2.14,4.07-2.31,6.59-1.9,2.85.46,4.01,3.35,7.31-.34-.26-15.38.49-30.67,2.52-45.92,4.19-31.6,12.84-62.6,27.21-91,1.43-2.81,6.64-10.62,7.17-12.81.42-1.74-.8-5.76-.8-7.83-.03-31.2,27.94-61.38,53.83-75.33,35.76-19.26,91.68-23.29,124.42,3.9.95.79,2.84,3.21,3.58,3.54,1.24.55,7.72.96,9.97,1.43,24.08,4.97,47.91,22.91,63.85,41.07,56.25,64.13,81.32,191.59,51.03,271.37-17.28,45.53-52.72,79.66-98.65,95.75-.07,4.16-.19,8.36-.1,12.52.18,8.48,2.74,24.66-.74,31.98-7.91,16.66-49.85,22.23-57.72,4.17-5.63-12.93,6.38-22.51,16.49-27.86l-.74-10.93c-3.81.61-7.77,1.18-11.63,1.42-9.4.59-20.05.62-29.42,0-5.62-.37-11.25-1.39-16.86-1.89-.52,6.75.7,14.5,0,21.13v-.02l.02-.02Z"/>
  <path class="st8" d="M319.27,48.19c21.52,4.71,45.65,25.3,59.32,42.03,51.09,62.53,73.87,184.88,43.57,260.07-32.57,80.84-118.46,108.59-199.8,93.27-31.24-5.89-60.38-19.74-81.55-43.78l7.92,3.95c4.65,1.68,11.22,8.43,15.33,9.83,2.93,1,9.05,2.28,12.27,2.92,10.68,2.13,10.36-.21,19.42-3.53,29.39-10.8,60.65-12.39,91.75-11.24,10.06-1.76,3.92-15.51,3.77-22.1,26.1,1.83,60.08-12.34,73.35-35.61,1.79-3.14,6.25-11.38,1.17-13.53s-6.29,3.48-8.14,6.55c-14.77,24.41-51.63,39.19-79.08,30.37-11.33-3.64-24.22-17.13-14.11-28.63,9.07-10.3,25.21-4.87,37.02-5.7,14.68-1.02,27.12-9.23,35.76-20.73,2.52-3.35,10.22-14.21,4.53-17.19-2.98-1.56-4.73.2-6.55,2.36-5.08,6.04-7.72,12.06-14.29,17.51-11.15,9.25-23.69,8.64-37.45,7.64-2.83-9.9-3.4-20.62-6.11-30.51-.74-2.72-1.51-5.62-4.7-6.22-1.52-.29-4.28.74-5.61-.09-.46-.28-1.61-2.96-2.37-3.8-2.39-2.67-8.49-4.65-11.96-5.6-29.93-8.15-67.93-.67-90.55,21.03-12.39-20.59-37.25-33.17-60.94-34.72-.4-.1-.59-.34-.71-.71-.82-2.48.13-10.13-.56-13.25,1.56-43.24,10.61-86.48,31.74-124.46,1.29-2.32,5.43-9.92,6.89-11.39,1.53-1.54,7.77-4.13,10.24-5.66,10.54-6.51,20.1-14.65,28.75-23.46.58.18.13,1.01,0,1.43-3.4,10.27-6.93,20.51-10.64,30.66-.44,9.49,15.38,5.91,20.86,4.72,16.33-3.56,30.46-12.33,41.76-24.46-.76,2.02-1.34,4.15-2.14,6.17-1.56,3.92-6.74,12.29-6.37,15.86s2.63,5.17,5.91,5.5c16.71,1.69,38.21-6.33,51.24-16.63,2.2-1.73,6.78-6.96,8.36-7.78,1.46-.76,4.35-1.02,6.14-1.69l.83-1.37c16.68-8.27,25.48-28.7,24.92-46.69l.84-1.32h-.02v-.02Z"/>
  <path class="st3" d="M319.27,48.19c1.82,17.68-9.3,42.79-26.58,49.38l-4.74.24c5.36-5.14,17.29-25.69,14.46-32.52-.63-1.52-3.93-3.05-5.18-1.43-2.99,3.92-5.26,10.17-7.78,14.55-6.17,10.75-12.94,18.78-23.67,25.23-9.5,5.71-21.77,10.04-32.89,9.83,3.61-7.44,6.41-15.82,8.4-23.88.95-3.85,3.21-12.34,2.41-15.91-.65-2.89-4.59-3.66-6.56-1.54-13.34,18.63-33.97,38.36-58.14,40.15-.73.06-.82.08-.69-.7,4.58-10.4,7.23-21.51,11.77-31.92,1.69-3.89,6.84-11.99,7.48-15.33.35-1.81-.24-4.94-2.44-5.25-1.92-.27-6.2,3.15-7.95,4.37-17.54,12.16-31.14,29.59-50.4,39.32,1.57-20.01,13.57-38.39,28.24-51.52,32.83-29.38,93.46-38.75,130.69-12.96,3.2,2.22,9.66,8.59,12.9,8.93,3.72.39,6.75.09,10.68.95h-.02,0Z"/>
  <path class="st1" d="M267.9,295.67l5.78,27.68c-3.43,1.45-7.05,2.47-10.27,4.41-15.72,9.47-16.21,28.72-3,40.7,6.02,5.46,13.08,7.73,20.67,10.2l2.13,13.3c-31.67-1.01-63.69,1.86-93.5,12.82l-15.91-90.22c.67-1.31,12.84-5.13,15.07-5.82,19-5.85,40.69-9.29,60.46-11.69,2.28-.28,17.89-2.09,18.59-1.39h-.02Z"/>
  <path class="st2" d="M160.26,400.02c-12.61-8.68-26.85-15.12-41.76-18.76-2.69-.66-15.67-2.64-16.64-3.77-.6-.69-3.4-12.27-3.3-13.31.06-.58,3.83-4.6,4.68-6.24,6.84-13.25.38-35.29-12.97-42.44-1.42-.76-5.35-1.78-5.87-2.68l-7.19-31.02c18.67,3.11,37.77,10.3,53.59,20.7,4.31,2.83,8.62,5.93,12.11,9.73l17.36,87.8h0Z"/>
  <path class="st5" d="M256.61,287.48c-26.38,2.45-53.68,6.1-78.68,15.07-3.04,1.09-14.02,6.35-15.97,6.33-10.84-.09-12.99-4.29-20.46-9.98-16.24-12.37-35.8-20.68-55.75-24.94.86-.58,1.81-2.2,2.58-2.64,1.35-.77,9.31-.59,11.41-.45,18.97,1.31,40.27,12.35,52.7,26.58,2.07,2.37,5.58,8.93,8.54,9.07s4.01-2.55,5.92-4.08c21.92-17.54,56.93-25.44,84.12-17.66,1.84.52,4.44,1.12,5.6,2.71h-.02,0Z"/>
  <path class="st8" d="M201.08,448.45l22.58,5.66c-.37,7.56,2.18,21.28-2.44,27.53-5.82,7.88-24.63,9.21-33.6,8.05-17.61-2.27-11.53-13.59,0-19.35,3.12-1.56,13.47-3.75,13.47-7.42v-14.48h0Z"/>
  <path class="st8" d="M324.01,449.87l.97,32.55c-.8,13.78-30.44,17.52-38,10.43-5.8-5.43.34-11.53,5.08-14.88,1.94-1.37,9.14-4.73,9.76-5.91,1.33-2.55.42-4.04.36-6.29-.1-3.74-.33-7.42-.48-11.15l22.3-4.75h.01Z"/>
  <path class="st1" d="M165.47,317.87l16.13,89.74c-3.38-.99-7.85-1.54-11.05-2.95-.82-.36-1.56-.5-1.81-1.51l-16.57-85.98c4.39,0,8.98,1.81,13.29.7h0Z"/>
  <path class="st8" d="M79.91,323.2c6.93-1.54,13.2,9.02,14.61,14.61s2.41,17.68-4.96,19.26c-8.88,1.9-15.42-9.64-16.16-17.12-.48-4.84.56-15.43,6.51-16.75Z"/>
  <path class="st7" d="M204.88,189.21c7.11-1.62,14.43-1.4,21.35.95,4.54-29.69,33.72-49.93,63.24-41.17,19.81,5.88,34.38,25.47,35.49,45.92,21.23-2.2,42.29-5.73,63.36-9.06,6.91-.68,9.37,8.4,2.16,10.25-12.71,3.29-30.61,4.93-44,6.79-7.14,1-14.34,1.88-21.53,2.44-.62,20.2-15.17,39.5-34.4,45.6-34.19,10.83-66.23-15.47-65.8-50.3-4.22-1.45-15.62-3.66-18.92-.27-.99,1.02-1.62,7.65-2.15,9.72-7.61,30.16-39.73,48.89-68.07,31.54-34.26-20.97-29.04-81.6,9.67-94.7,29.85-10.1,56.6,12.96,59.59,42.28h0Z"/>
  <path class="st6" d="M205.52,249.82c-7.4-7.05,1.94-20.71,10.98-13.6s-2.31,21.86-10.98,13.6Z"/>
  <path class="st8" d="M270.27,158c38.39-4.08,57.87,43.15,34.74,70.84s-64.2,12.6-69.22-21.41c-3.23-21.86,11.23-46.96,34.48-49.43Z"/>
  <path class="st8" d="M156.36,155.16c46.67-3.64,52.35,76.04,7.34,82.36-49.81,6.98-55.27-78.61-7.34-82.36h0Z"/>
  <path class="st0" d="M262.66,194.54c15.01-2.57,15.69,24.58,2.73,25.53s-13.88-23.63-2.73-25.53Z"/>
  <path class="st6" d="M168.2,190.74c15.58-2.88,15.47,24.86,2.67,25.5s-13.25-23.55-2.67-25.5Z"/>
</svg>