<svg width="68" height="44" viewBox="0 0 68 44" fill="none" xmlns="http://www.w3.org/2000/svg">
<mask id="mask0_1351_2880" style="mask-type:alpha" maskUnits="userSpaceOnUse" x="0" y="0" width="68" height="44">
<path d="M67.2917 0H0V43.7011H67.2917V0Z" fill="#D9D9D9"/>
</mask>
<g mask="url(#mask0_1351_2880)">
<path d="M31.4515 -18.5021L10.8507 -6.58578C10.4021 -6.32594 10.0244 -5.95153 9.76468 -5.49916C9.50495 -5.04798 9.375 -4.53656 9.375 -4.01569L9.58756 37.322C9.58756 37.8394 9.72919 38.3472 9.98891 38.7937C10.2486 39.2401 10.6146 39.611 11.0633 39.8685C11.5119 40.1248 12.0195 40.2606 12.539 40.2594C13.0584 40.2583 13.566 40.1224 14.0146 39.8626L33.1514 28.7909L52.4063 39.6677C52.8549 39.9228 53.3626 40.0539 53.882 40.0492C54.3897 40.0457 54.8973 39.9051 55.3459 39.6429C55.7945 39.3819 56.1605 39.0075 56.4202 38.5575C56.6682 38.1086 56.8098 37.5996 56.8098 37.0834L56.5972 -4.25545C56.5972 -4.77632 56.4556 -5.28657 56.1841 -5.73539C55.9243 -6.18421 55.5466 -6.55507 55.098 -6.81138L34.3792 -18.517C33.9306 -18.7695 33.423 -18.901 32.9035 -18.8984C32.3959 -18.8958 31.8883 -18.7593 31.4515 -18.5021Z" fill="black"/>
</g>
</svg>
