<?xml version="1.0" encoding="UTF-8"?>
<svg id="_レイヤー_1" data-name=" レイヤー 1" xmlns="http://www.w3.org/2000/svg" viewBox="0 0 539.06 111.42">
  <defs>
    <style>
      .cls-1 {
        stroke-width: 3px;
      }

      .cls-1, .cls-2, .cls-3 {
        stroke-miterlimit: 10;
      }

      .cls-1, .cls-3 {
        stroke: #414141;
      }

      .cls-1, .cls-4 {
        fill: #fff;
      }

      .cls-2 {
        fill: #f5b227;
        stroke: #f7f7f7;
      }

      .cls-3 {
        fill: #414141;
        stroke-width: 2px;
      }
    </style>
  </defs>
  <path class="cls-4" d="M91.53,24.54c1.39-.11,2.55-.63,3.33-1.58,2.16-2.65.39-7.66-3.97-11.2l-.1-.08c-4.33-3.46-9.54-4.15-11.68-1.52-.77.94-1.03,2.19-.86,3.55C56.41,1.2,28.11,5.97,11.72,26.13c-18.22,22.41-14.83,55.35,7.58,73.57,22.41,18.22,55.35,14.83,73.57-7.58,16.37-20.13,15.29-48.76-1.34-67.58Z"/>
  <path class="cls-1" d="M87.93,88.26c-16.04,19.72-45.03,22.71-64.75,6.67C3.46,78.89.47,49.9,16.51,30.18c16.04-19.72,45.02-22.7,64.75-6.67l.04.04c19.68,16.04,22.66,45,6.63,64.71Z"/>
  <circle class="cls-1" cx="52.64" cy="59.57" r="31.51"/>
  <path class="cls-4" d="M99.21,1.94c-3.71-3.01-9.16-2.45-12.18,1.26-3.02,3.71-2.45,9.16,1.25,12.17l.12.1c3.71,2.91,9.07,2.32,12.06-1.35,3.02-3.71,2.46-9.17-1.26-12.19h.01ZM91.17,11.97c-1.75-1.42-2.01-3.99-.59-5.73,1.42-1.75,3.99-2.01,5.73-.59s2.01,3.99.59,5.73-3.99,2.01-5.73.59Z"/>
  <polygon class="cls-3" points="48.07 18.93 48.03 56.16 11.58 63.71 48.99 63.53 56.36 100.21 56.15 62.77 92.86 55.42 55.44 55.6 48.07 18.93"/>
  <polygon class="cls-2" points="78.58 27.56 51.44 51.08 21.08 33.19 44.39 60.16 26.71 90.69 53.44 67.67 84.21 85.06 60.57 57.96 78.58 27.56"/>
  <g>
    <path class="cls-4" d="M148.56,92.84c-5.47,0-10.36-1.3-14.68-3.89-4.32-2.59-7.7-6.26-10.15-11.01-2.45-4.75-3.67-10.35-3.67-16.8s1.22-12.13,3.67-16.88,5.83-8.43,10.15-11.05,9.21-3.93,14.68-3.93,10.35,1.31,14.64,3.93c4.29,2.62,7.66,6.3,10.1,11.05,2.45,4.75,3.67,10.38,3.67,16.88,0,5.93-1.07,11.2-3.2,15.8l4.32,3.28c2.99,2.3,3.34,4.95,1.04,7.94-2.42,3.11-5.04,3.57-7.86,1.38l-4.32-3.28c-2.42,2.13-5.18,3.76-8.29,4.88-3.11,1.12-6.48,1.68-10.1,1.68v.02ZM148.56,81.96c3.45,0,6.5-.95,9.15-2.85l-3.2-2.42c-2.99-2.36-3.34-5.01-1.04-7.94,2.24-2.99,4.6-3.57,7.08-1.73l3.54,2.76c.81-2.71,1.21-5.58,1.21-8.64,0-4.2-.68-7.86-2.03-10.97s-3.28-5.54-5.79-7.3c-2.5-1.76-5.48-2.63-8.94-2.63s-6.35.88-8.85,2.63c-2.5,1.76-4.45,4.19-5.83,7.3s-2.07,6.77-2.07,10.97.69,7.77,2.07,10.88,3.32,5.54,5.83,7.3c2.5,1.76,5.45,2.63,8.85,2.63h.02,0Z"/>
    <path class="cls-4" d="M191.3,91.37c-3.8,0-5.7-1.9-5.7-5.7v-49.05c0-3.8,1.87-5.7,5.61-5.7s5.61,1.9,5.61,5.7v44.39h25.3c3.8,0,5.7,1.73,5.7,5.18s-1.9,5.18-5.7,5.18h-30.83,0Z"/>
    <path class="cls-4" d="M239.49,91.37c-3.74,0-5.61-1.9-5.61-5.7v-49.05c0-3.8,1.87-5.7,5.61-5.7s5.61,1.9,5.61,5.7v49.05c0,3.8-1.87,5.7-5.61,5.7Z"/>
    <path class="cls-4" d="M262.98,91.37c-3.74,0-5.61-1.9-5.61-5.7v-49.05c0-3.8,1.9-5.7,5.7-5.7h22.28c3.8,0,7.09.58,9.89,1.73,2.79,1.15,4.95,3.02,6.48,5.61,1.52,2.59,2.29,6.07,2.29,10.45s-.76,7.87-2.29,10.49-3.68,4.52-6.48,5.7c-2.79,1.18-6.09,1.77-9.89,1.77h-16.75v19c0,3.8-1.87,5.7-5.61,5.7h-.01ZM268.59,56.23h15.2c2.59,0,4.63-.57,6.13-1.73,1.5-1.15,2.25-3.08,2.25-5.79s-.75-4.55-2.25-5.7-3.54-1.73-6.13-1.73h-15.2v14.94h0Z"/>
  </g>
  <g>
    <path class="cls-4" d="M334.75,90.9c-3.65,0-6.91-.86-9.79-2.59-2.88-1.73-5.13-4.17-6.77-7.34-1.63-3.17-2.45-6.9-2.45-11.2s.82-8.09,2.45-11.26,3.89-5.62,6.77-7.37c2.88-1.75,6.14-2.62,9.79-2.62,2.73,0,5.22.48,7.48,1.44s4.24,2.32,5.93,4.09c.88.96,1.17,1.92.86,2.88-.31.96-.9,1.71-1.78,2.25l-.29.17c-.58.34-1.37.48-2.39.4-1.02-.08-1.97-.52-2.85-1.32-1.92-1.73-4.24-2.59-6.97-2.59-2.26,0-4.23.59-5.9,1.76-1.67,1.17-2.96,2.79-3.89,4.86-.92,2.07-1.38,4.51-1.38,7.31s.46,5.18,1.38,7.25,2.22,3.69,3.89,4.86,3.64,1.76,5.9,1.76c2.73,0,5.05-.86,6.97-2.59.88-.81,1.77-1.28,2.68-1.41.9-.13,1.76,0,2.56.43l.11.06c.88.46,1.52,1.2,1.9,2.22.38,1.02.15,1.99-.69,2.91-1.69,1.8-3.68,3.2-5.99,4.17-2.3.98-4.82,1.47-7.54,1.47h.01Z"/>
    <path class="cls-4" d="M366.98,90.56c-2.57,0-4.88-.59-6.94-1.78-2.05-1.19-3.67-2.88-4.84-5.07-1.17-2.19-1.76-4.74-1.76-7.66s.58-5.52,1.76-7.69c1.17-2.17,2.78-3.86,4.84-5.07,2.05-1.21,4.37-1.81,6.94-1.81s4.93.6,6.97,1.81c2.03,1.21,3.64,2.9,4.81,5.07,1.17,2.17,1.76,4.73,1.76,7.69s-.59,5.47-1.76,7.66-2.77,3.88-4.81,5.07c-2.03,1.19-4.36,1.78-6.97,1.78ZM366.98,84c1.84,0,3.35-.68,4.52-2.04,1.17-1.36,1.76-3.33,1.76-5.9s-.59-4.6-1.76-5.96-2.68-2.04-4.52-2.04-3.33.68-4.46,2.04-1.7,3.35-1.7,5.96.57,4.54,1.7,5.9,2.62,2.04,4.46,2.04Z"/>
    <path class="cls-4" d="M388.92,89.92c-2.42,0-3.63-1.27-3.63-3.8v-20.15c0-2.53,1.07-3.8,3.22-3.8s3.3.52,3.45,1.55l.23,1.55c.54-1.11,1.41-2.02,2.62-2.73s2.62-1.06,4.23-1.06c1.73,0,3.25.41,4.58,1.24,1.32.83,2.37,1.97,3.14,3.43.77-1.34,1.84-2.46,3.22-3.34s2.92-1.32,4.61-1.32c2.69,0,4.87.97,6.56,2.91,1.69,1.94,2.53,4.62,2.53,8.03v13.7c0,2.53-1.21,3.8-3.63,3.8s-3.68-1.27-3.68-3.8v-11.92c0-1.8-.33-3.28-.98-4.43-.65-1.15-1.56-1.73-2.71-1.73-1.46,0-2.59.55-3.4,1.64s-1.21,2.73-1.21,4.92v11.51c0,2.53-1.21,3.8-3.63,3.8s-3.63-1.27-3.63-3.8v-11.92c0-1.8-.35-3.28-1.04-4.43s-1.61-1.73-2.76-1.73c-2.99,0-4.49,2.19-4.49,6.56v11.51c0,2.53-1.21,3.8-3.63,3.8h.03Z"/>
    <path class="cls-4" d="M432.9,101.09c-2.42,0-3.63-1.27-3.63-3.8v-31.32c0-2.53,1.05-3.8,3.17-3.8s3.17.42,3.28,1.27l.17,1.32c1.96-2.19,4.38-3.28,7.25-3.28,2.61,0,4.93.57,6.97,1.7,2.03,1.13,3.64,2.78,4.81,4.95,1.17,2.17,1.76,4.81,1.76,7.92s-.59,5.69-1.76,7.86-2.77,3.82-4.81,4.95c-2.03,1.13-4.36,1.7-6.97,1.7s-4.7-.86-6.62-2.59v9.33c0,2.53-1.21,3.8-3.63,3.8h0ZM442.86,84c1.84,0,3.39-.68,4.63-2.04,1.25-1.36,1.87-3.33,1.87-5.9s-.62-4.6-1.87-5.96-2.79-2.04-4.63-2.04-3.38.68-4.61,2.04c-1.23,1.36-1.84,3.35-1.84,5.96s.61,4.54,1.84,5.9,2.76,2.04,4.61,2.04Z"/>
    <path class="cls-4" d="M470.55,90.27c-3.03.15-5.56-.5-7.57-1.96s-3.02-3.57-3.02-6.33c0-1.96.58-3.64,1.76-5.04,1.17-1.4,2.69-2.49,4.55-3.28s3.79-1.2,5.79-1.24c.88-.08,1.73,0,2.53.2.81.21,1.55.49,2.24.83v-1.84c0-1.61-.34-2.66-1.04-3.14-.69-.48-1.67-.72-2.94-.72-1.04,0-2.1.12-3.2.37-1.09.25-2.16.59-3.2,1.01-1.11.46-2.06.62-2.85.49-.79-.13-1.45-.64-1.99-1.53-.5-.88-.61-1.74-.35-2.56.27-.82.98-1.49,2.13-1.99,1.38-.61,2.87-1.11,4.46-1.5,1.59-.38,3.25-.58,4.98-.58,3.57,0,6.28.73,8.12,2.19s2.76,4.11,2.76,7.94v12.09c0,.38.02.65.06.81.11.54.33.89.66,1.07.33.17.66.29,1.01.35s.64.13.89.23c.25.1.37.34.37.72,0,.73-.2,1.38-.6,1.96s-1.07.96-1.99,1.15c-.42.08-.86.14-1.32.2-.46.06-.94.09-1.44.09-2.26,0-3.7-.77-4.32-2.3-1.77,1.34-3.93,2.11-6.51,2.3h.03ZM470.38,84.05c2.03-.12,3.66-.51,4.87-1.18s1.77-1.6,1.7-2.79c-.04-.88-.47-1.46-1.3-1.73-.83-.27-1.83-.36-3.02-.29-1.77.08-3.17.53-4.2,1.35-1.04.83-1.54,1.7-1.5,2.62.04.65.34,1.16.89,1.53.56.37,1.41.53,2.56.49h0Z"/>
    <path class="cls-4" d="M501.35,90.5c-1.61,0-3.18-.18-4.69-.55-1.52-.36-2.95-.97-4.29-1.81-1.08-.69-1.65-1.49-1.73-2.39-.08-.9.25-1.76.98-2.56.73-.77,1.49-1.14,2.27-1.12.79.02,1.72.34,2.79.95,1.5.81,3.19,1.21,5.07,1.21,1.46,0,2.48-.18,3.05-.55.58-.36.86-1.05.86-2.04,0-.42-.14-.8-.43-1.12-.29-.33-.88-.63-1.78-.92s-2.25-.6-4.06-.95c-2.8-.54-4.96-1.46-6.48-2.76-1.52-1.3-2.27-3.26-2.27-5.87,0-1.73.46-3.23,1.38-4.52.92-1.29,2.18-2.28,3.77-2.99,1.59-.71,3.39-1.06,5.38-1.06,2.72,0,5.18.5,7.37,1.5,1.15.58,1.81,1.31,1.99,2.19.17.88-.07,1.75-.72,2.59s-1.37,1.28-2.16,1.29c-.79.02-1.74-.18-2.85-.6-.58-.23-1.15-.39-1.73-.49-.58-.1-1.17-.14-1.78-.14-1.27,0-2.13.2-2.59.6s-.69.87-.69,1.41c0,.38.11.73.35,1.04.23.31.73.6,1.5.89s1.96.62,3.57,1.01c3.18.73,5.59,1.83,7.22,3.31s2.45,3.44,2.45,5.9c0,2.88-1.1,5.03-3.31,6.45s-5.02,2.13-8.43,2.13v-.03h0Z"/>
    <path class="cls-4" d="M527.31,90.5c-1.61,0-3.18-.18-4.69-.55-1.52-.36-2.95-.97-4.29-1.81-1.08-.69-1.65-1.49-1.73-2.39-.08-.9.25-1.76.98-2.56.73-.77,1.49-1.14,2.27-1.12.79.02,1.72.34,2.79.95,1.5.81,3.19,1.21,5.07,1.21,1.46,0,2.48-.18,3.05-.55.58-.36.86-1.05.86-2.04,0-.42-.14-.8-.43-1.12-.29-.33-.88-.63-1.78-.92s-2.25-.6-4.06-.95c-2.8-.54-4.96-1.46-6.48-2.76-1.52-1.3-2.27-3.26-2.27-5.87,0-1.73.46-3.23,1.38-4.52.92-1.29,2.18-2.28,3.77-2.99,1.59-.71,3.39-1.06,5.38-1.06,2.72,0,5.18.5,7.37,1.5,1.15.58,1.81,1.31,1.99,2.19.17.88-.07,1.75-.72,2.59-.65.84-1.37,1.28-2.16,1.29-.79.02-1.74-.18-2.85-.6-.58-.23-1.15-.39-1.73-.49-.58-.1-1.17-.14-1.78-.14-1.27,0-2.13.2-2.59.6s-.69.87-.69,1.41c0,.38.11.73.35,1.04.23.31.73.6,1.5.89s1.96.62,3.57,1.01c3.18.73,5.59,1.83,7.22,3.31s2.45,3.44,2.45,5.9c0,2.88-1.1,5.03-3.31,6.45s-5.02,2.13-8.43,2.13v-.03h-.01Z"/>
  </g>
  <polygon class="cls-4" points="323.39 22.44 328.12 19.01 326.31 24.56 331.04 28 325.2 28 323.39 33.56 321.58 28 315.74 28 320.47 24.56 318.66 19.01 323.39 22.44"/>
  <polygon class="cls-4" points="414.27 43.12 416.65 37.78 417.87 43.5 423.68 44.11 418.62 47.03 419.83 52.75 415.49 48.84 410.43 51.76 412.81 46.42 408.46 42.51 414.27 43.12"/>
  <polygon class="cls-4" points="358.05 41.43 361.06 39.24 359.91 42.79 362.92 44.98 359.2 44.98 358.05 48.52 356.89 44.98 353.17 44.98 356.18 42.79 355.03 39.24 358.05 41.43"/>
  <polygon class="cls-4" points="381.62 27.16 383.89 25.51 383.02 28.18 385.29 29.82 382.49 29.82 381.62 32.49 380.76 29.82 377.96 29.82 380.22 28.18 379.36 25.51 381.62 27.16"/>
  <polygon class="cls-4" points="435.04 14.92 434.65 11.21 437.14 13.98 440.55 12.46 438.68 15.69 441.18 18.46 437.53 17.68 435.67 20.91 435.28 17.21 431.64 16.43 435.04 14.92"/>
  <polygon class="cls-4" points="466 42.83 468.36 41.11 467.46 43.89 469.82 45.6 466.9 45.6 466 48.37 465.1 45.6 462.19 45.6 464.55 43.89 463.65 41.11 466 42.83"/>
  <polygon class="cls-4" points="487.26 28.69 488.51 31.4 485.91 29.94 483.72 31.97 484.3 29.05 481.7 27.59 484.66 27.24 485.24 24.32 486.49 27.02 489.44 26.67 487.26 28.69"/>
  <polygon class="cls-4" points="525.06 42.85 530.36 45.52 524.5 46.48 523.6 52.35 520.88 47.07 515.02 48.02 519.2 43.8 516.47 38.52 521.78 41.2 525.96 36.98 525.06 42.85"/>
</svg>