<svg width="213" height="47" viewBox="0 0 213 47" fill="none" xmlns="http://www.w3.org/2000/svg">
<path d="M52.2 12.375C49.0167 12.375 47.425 14.5417 47.425 18.875C47.425 23.2083 49.0167 25.375 52.2 25.375C55.3667 25.375 56.95 23.2083 56.95 18.875C56.95 14.5417 55.3667 12.375 52.2 12.375ZM52.2 28.25C49.6333 28.25 47.6 27.425 46.1 25.775C44.6 24.125 43.85 21.825 43.85 18.875C43.85 15.925 44.6 13.625 46.1 11.975C47.6 10.325 49.6333 9.5 52.2 9.5C54.7667 9.5 56.7917 10.325 58.275 11.975C59.775 13.625 60.525 15.925 60.525 18.875C60.525 22.5083 59.3 25.15 56.85 26.8C56.8333 26.8 56.825 26.8083 56.825 26.825C56.825 26.8583 56.8333 26.875 56.85 26.875C58.7167 27.6083 60.3167 28.8333 61.65 30.55C61.8333 30.8 61.85 31.0583 61.7 31.325C61.5667 31.6083 61.3417 31.75 61.025 31.75H59.95C59.05 31.75 58.3167 31.35 57.75 30.55C57.0833 29.6167 56.375 29 55.625 28.7C54.875 28.4 53.7333 28.25 52.2 28.25ZM64.9053 28C64.5219 28 64.1886 27.8583 63.9053 27.575C63.6386 27.2917 63.5053 26.9583 63.5053 26.575V11.175C63.5053 10.7917 63.6386 10.4583 63.9053 10.175C64.1886 9.89167 64.5219 9.75 64.9053 9.75H65.7053C66.0886 9.75 66.4219 9.89167 66.7053 10.175C66.9886 10.4583 67.1303 10.7917 67.1303 11.175V24.875C67.1303 25.025 67.1969 25.1 67.3303 25.1H73.7553C74.1386 25.1 74.4636 25.2417 74.7303 25.525C75.0136 25.7917 75.1553 26.1167 75.1553 26.5V26.575C75.1553 26.9583 75.0136 27.2917 74.7303 27.575C74.4636 27.8583 74.1386 28 73.7553 28H64.9053ZM80.3961 28C80.0128 28 79.6794 27.8583 79.3961 27.575C79.1128 27.2917 78.9711 26.9583 78.9711 26.575V11.175C78.9711 10.7917 79.1128 10.4583 79.3961 10.175C79.6794 9.89167 80.0128 9.75 80.3961 9.75H81.3961C81.7794 9.75 82.1128 9.89167 82.3961 10.175C82.6794 10.4583 82.8211 10.7917 82.8211 11.175V26.575C82.8211 26.9583 82.6794 27.2917 82.3961 27.575C82.1128 27.8583 81.7794 28 81.3961 28H80.3961ZM90.7102 12.6V18.625C90.7102 18.7417 90.7768 18.8167 90.9102 18.85C91.5435 18.9333 92.1602 18.975 92.7602 18.975C94.1102 18.975 95.1352 18.6833 95.8352 18.1C96.5518 17.5 96.9102 16.65 96.9102 15.55C96.9102 13.3333 95.5268 12.225 92.7602 12.225C92.1602 12.225 91.5435 12.2667 90.9102 12.35C90.7768 12.3833 90.7102 12.4667 90.7102 12.6ZM88.6602 28C88.2768 28 87.9435 27.8583 87.6602 27.575C87.3935 27.2917 87.2602 26.9583 87.2602 26.575V11.3C87.2602 10.9 87.3935 10.5417 87.6602 10.225C87.9268 9.90833 88.2602 9.73333 88.6602 9.7C90.0768 9.56667 91.4435 9.5 92.7602 9.5C95.2602 9.5 97.1352 10 98.3852 11C99.6352 11.9833 100.26 13.4167 100.26 15.3C100.26 17.3833 99.6518 18.9583 98.4352 20.025C97.2352 21.0917 95.4518 21.625 93.0852 21.625C92.5352 21.625 91.8102 21.5917 90.9102 21.525C90.7768 21.525 90.7102 21.5917 90.7102 21.725V26.575C90.7102 26.9583 90.5685 27.2917 90.2852 27.575C90.0018 27.8583 89.6685 28 89.2852 28H88.6602ZM117.513 28.25C114.88 28.25 112.788 27.4417 111.238 25.825C109.705 24.1917 108.938 21.875 108.938 18.875C108.938 15.9083 109.68 13.6083 111.163 11.975C112.663 10.325 114.755 9.5 117.438 9.5C118.671 9.5 119.705 9.575 120.538 9.725C120.938 9.79167 121.271 9.99167 121.538 10.325C121.805 10.6583 121.938 11.0333 121.938 11.45V11.65C121.938 12 121.788 12.275 121.488 12.475C121.205 12.675 120.896 12.7333 120.563 12.65C119.746 12.4333 118.83 12.325 117.813 12.325C116.163 12.325 114.863 12.8917 113.913 14.025C112.98 15.1583 112.513 16.775 112.513 18.875C112.513 20.9583 112.996 22.575 113.963 23.725C114.946 24.8583 116.255 25.425 117.888 25.425C118.988 25.425 119.93 25.325 120.713 25.125C121.046 25.0417 121.355 25.1 121.638 25.3C121.938 25.5 122.088 25.775 122.088 26.125V26.3C122.088 26.7167 121.955 27.0917 121.688 27.425C121.438 27.7417 121.105 27.9333 120.688 28C119.738 28.1667 118.68 28.25 117.513 28.25ZM133.063 18.225C132.58 17.525 131.847 17.175 130.863 17.175C129.88 17.175 129.138 17.525 128.638 18.225C128.155 18.9083 127.913 20 127.913 21.5C127.913 23 128.155 24.1 128.638 24.8C129.138 25.4833 129.88 25.825 130.863 25.825C131.847 25.825 132.58 25.4833 133.063 24.8C133.563 24.1 133.813 23 133.813 21.5C133.813 20 133.563 18.9083 133.063 18.225ZM135.513 26.5C134.413 27.6667 132.863 28.25 130.863 28.25C128.863 28.25 127.305 27.6667 126.188 26.5C125.088 25.3167 124.538 23.65 124.538 21.5C124.538 19.35 125.088 17.6917 126.188 16.525C127.305 15.3417 128.863 14.75 130.863 14.75C132.863 14.75 134.413 15.3417 135.513 16.525C136.63 17.6917 137.188 19.35 137.188 21.5C137.188 23.65 136.63 25.3167 135.513 26.5ZM141.169 28C140.786 28 140.452 27.8583 140.169 27.575C139.902 27.2917 139.769 26.9583 139.769 26.575V16.425C139.769 16.0417 139.902 15.7083 140.169 15.425C140.452 15.1417 140.786 15 141.169 15H141.519C141.902 15 142.227 15.1333 142.494 15.4C142.777 15.6667 142.927 15.9917 142.944 16.375V16.55C142.944 16.5667 142.952 16.575 142.969 16.575C143.002 16.575 143.019 16.5667 143.019 16.55C144.002 15.35 145.111 14.75 146.344 14.75C147.094 14.75 147.694 14.8917 148.144 15.175C148.611 15.4583 149.019 15.9583 149.369 16.675C149.369 16.6917 149.386 16.7 149.419 16.7C149.436 16.7 149.452 16.6917 149.469 16.675C150.519 15.3917 151.702 14.75 153.019 14.75C154.402 14.75 155.394 15.125 155.994 15.875C156.611 16.625 156.919 17.9167 156.919 19.75V26.575C156.919 26.9583 156.777 27.2917 156.494 27.575C156.227 27.8583 155.902 28 155.519 28H155.094C154.711 28 154.377 27.8583 154.094 27.575C153.811 27.2917 153.669 26.9583 153.669 26.575V20.25C153.669 19.0333 153.552 18.2333 153.319 17.85C153.086 17.4667 152.636 17.275 151.969 17.275C151.536 17.275 151.102 17.475 150.669 17.875C150.236 18.275 150.019 18.675 150.019 19.075V26.575C150.019 26.9583 149.877 27.2917 149.594 27.575C149.311 27.8583 148.977 28 148.594 28H148.169C147.786 28 147.452 27.8583 147.169 27.575C146.902 27.2917 146.769 26.9583 146.769 26.575V20.25C146.769 19.05 146.644 18.2583 146.394 17.875C146.161 17.475 145.711 17.275 145.044 17.275C144.611 17.275 144.177 17.475 143.744 17.875C143.311 18.275 143.094 18.675 143.094 19.075V26.575C143.094 26.9583 142.952 27.2917 142.669 27.575C142.386 27.8583 142.052 28 141.669 28H141.169ZM163.552 19.8V23.2C163.552 23.8667 163.836 24.4583 164.402 24.975C164.986 25.4917 165.661 25.75 166.427 25.75C167.311 25.75 168.011 25.3917 168.527 24.675C169.044 23.9583 169.302 22.9 169.302 21.5C169.302 18.6667 168.344 17.25 166.427 17.25C165.661 17.25 164.986 17.5083 164.402 18.025C163.836 18.5417 163.552 19.1333 163.552 19.8ZM161.677 33.5C161.294 33.5 160.961 33.3583 160.677 33.075C160.394 32.7917 160.252 32.4583 160.252 32.075V16.425C160.252 16.0417 160.394 15.7083 160.677 15.425C160.961 15.1417 161.294 15 161.677 15H161.977C162.377 15 162.719 15.1417 163.002 15.425C163.286 15.6917 163.436 16.025 163.452 16.425V16.6C163.452 16.6167 163.461 16.625 163.477 16.625C163.494 16.625 163.511 16.6167 163.527 16.6C164.127 15.9333 164.727 15.4583 165.327 15.175C165.927 14.8917 166.627 14.75 167.427 14.75C168.994 14.75 170.244 15.3417 171.177 16.525C172.111 17.6917 172.577 19.35 172.577 21.5C172.577 23.5833 172.086 25.2333 171.102 26.45C170.136 27.65 168.911 28.25 167.427 28.25C165.977 28.25 164.719 27.725 163.652 26.675C163.636 26.6583 163.619 26.65 163.602 26.65C163.586 26.65 163.577 26.6583 163.577 26.675V32.075C163.577 32.4583 163.436 32.7917 163.152 33.075C162.886 33.3583 162.561 33.5 162.177 33.5H161.677ZM181.392 21.75C179.009 21.75 177.817 22.4833 177.817 23.95C177.817 24.4833 177.967 24.9167 178.267 25.25C178.584 25.5833 178.984 25.75 179.467 25.75C180.417 25.75 181.184 25.4583 181.767 24.875C182.35 24.275 182.642 23.4583 182.642 22.425V21.975C182.642 21.825 182.567 21.75 182.417 21.75H181.392ZM178.567 28.25C177.434 28.25 176.492 27.8833 175.742 27.15C175.009 26.4 174.642 25.4333 174.642 24.25C174.642 22.8 175.192 21.675 176.292 20.875C177.409 20.075 179.109 19.675 181.392 19.675H182.417C182.567 19.675 182.642 19.6 182.642 19.45V19.25C182.642 18.4833 182.459 17.95 182.092 17.65C181.725 17.3333 181.075 17.175 180.142 17.175C179.175 17.175 177.992 17.35 176.592 17.7C176.292 17.7833 176.017 17.7333 175.767 17.55C175.517 17.35 175.392 17.0917 175.392 16.775C175.392 16.3917 175.509 16.05 175.742 15.75C175.975 15.4333 176.275 15.2417 176.642 15.175C177.909 14.8917 179.1 14.75 180.217 14.75C182.35 14.75 183.842 15.1333 184.692 15.9C185.542 16.6667 185.967 18.0083 185.967 19.925V26.575C185.967 26.9583 185.825 27.2917 185.542 27.575C185.275 27.8583 184.95 28 184.567 28H184.292C183.892 28 183.55 27.8667 183.267 27.6C182.984 27.3167 182.834 26.975 182.817 26.575V26.225C182.817 26.2083 182.809 26.2 182.792 26.2C182.759 26.2 182.742 26.2083 182.742 26.225C181.725 27.575 180.334 28.25 178.567 28.25ZM193.512 22.75C191.762 22.3667 190.512 21.8417 189.762 21.175C189.028 20.5083 188.662 19.6417 188.662 18.575C188.662 17.375 189.103 16.4417 189.987 15.775C190.887 15.0917 192.212 14.75 193.962 14.75C195.062 14.75 196.153 14.85 197.237 15.05C197.603 15.1167 197.895 15.3 198.112 15.6C198.345 15.8833 198.462 16.2167 198.462 16.6C198.462 16.9167 198.337 17.175 198.087 17.375C197.837 17.5583 197.553 17.6083 197.237 17.525C196.303 17.2917 195.32 17.175 194.287 17.175C192.787 17.175 192.037 17.5917 192.037 18.425C192.037 18.825 192.178 19.1583 192.462 19.425C192.745 19.6917 193.228 19.9 193.912 20.05C195.828 20.4333 197.137 20.95 197.837 21.6C198.553 22.25 198.912 23.2 198.912 24.45C198.912 25.65 198.462 26.5833 197.562 27.25C196.662 27.9167 195.353 28.25 193.637 28.25C192.52 28.25 191.378 28.1167 190.212 27.85C189.845 27.7667 189.545 27.575 189.312 27.275C189.078 26.9583 188.962 26.6 188.962 26.2C188.962 25.8833 189.087 25.6417 189.337 25.475C189.603 25.3083 189.887 25.2667 190.187 25.35C191.27 25.65 192.295 25.8 193.262 25.8C194.778 25.8 195.537 25.35 195.537 24.45C195.537 24.0167 195.387 23.675 195.087 23.425C194.803 23.175 194.278 22.95 193.512 22.75ZM206.207 22.75C204.457 22.3667 203.207 21.8417 202.457 21.175C201.724 20.5083 201.357 19.6417 201.357 18.575C201.357 17.375 201.799 16.4417 202.682 15.775C203.582 15.0917 204.907 14.75 206.657 14.75C207.757 14.75 208.849 14.85 209.932 15.05C210.299 15.1167 210.59 15.3 210.807 15.6C211.04 15.8833 211.157 16.2167 211.157 16.6C211.157 16.9167 211.032 17.175 210.782 17.375C210.532 17.5583 210.249 17.6083 209.932 17.525C208.999 17.2917 208.015 17.175 206.982 17.175C205.482 17.175 204.732 17.5917 204.732 18.425C204.732 18.825 204.874 19.1583 205.157 19.425C205.44 19.6917 205.924 19.9 206.607 20.05C208.524 20.4333 209.832 20.95 210.532 21.6C211.249 22.25 211.607 23.2 211.607 24.45C211.607 25.65 211.157 26.5833 210.257 27.25C209.357 27.9167 208.049 28.25 206.332 28.25C205.215 28.25 204.074 28.1167 202.907 27.85C202.54 27.7667 202.24 27.575 202.007 27.275C201.774 26.9583 201.657 26.6 201.657 26.2C201.657 25.8833 201.782 25.6417 202.032 25.475C202.299 25.3083 202.582 25.2667 202.882 25.35C203.965 25.65 204.99 25.8 205.957 25.8C207.474 25.8 208.232 25.35 208.232 24.45C208.232 24.0167 208.082 23.675 207.782 23.425C207.499 23.175 206.974 22.95 206.207 22.75Z" fill="white"/>
<path d="M44.332 35.632C44.148 35.632 43.988 35.568 43.852 35.44C43.716 35.304 43.648 35.144 43.648 34.96V34.924C43.648 34.74 43.716 34.58 43.852 34.444C43.988 34.308 44.148 34.24 44.332 34.24H49.444C49.628 34.24 49.788 34.308 49.924 34.444C50.06 34.58 50.128 34.74 50.128 34.924V34.96C50.128 35.144 50.06 35.304 49.924 35.44C49.788 35.568 49.628 35.632 49.444 35.632H47.836C47.772 35.632 47.74 35.668 47.74 35.74V42.316C47.74 42.5 47.672 42.66 47.536 42.796C47.4 42.932 47.24 43 47.056 43H46.72C46.536 43 46.376 42.932 46.24 42.796C46.104 42.66 46.036 42.5 46.036 42.316V35.74C46.036 35.668 46.004 35.632 45.94 35.632H44.332ZM52.3413 43C52.1573 43 51.9973 42.932 51.8613 42.796C51.7333 42.66 51.6693 42.5 51.6693 42.316V34.684C51.6693 34.5 51.7333 34.34 51.8613 34.204C51.9973 34.068 52.1573 34 52.3413 34H52.5813C52.7653 34 52.9253 34.068 53.0613 34.204C53.1973 34.34 53.2653 34.5 53.2653 34.684V37.468C53.2653 37.476 53.2693 37.48 53.2773 37.48C53.2853 37.48 53.2933 37.476 53.3013 37.468C53.8613 36.916 54.4773 36.64 55.1493 36.64C55.8773 36.64 56.4053 36.848 56.7333 37.264C57.0613 37.68 57.2253 38.392 57.2253 39.4V42.316C57.2253 42.5 57.1573 42.66 57.0213 42.796C56.8853 42.932 56.7253 43 56.5413 43H56.3493C56.1653 43 56.0053 42.932 55.8693 42.796C55.7333 42.66 55.6653 42.5 55.6653 42.316V39.64C55.6653 38.944 55.5893 38.484 55.4373 38.26C55.2933 38.036 55.0173 37.924 54.6093 37.924C54.2893 37.924 53.9853 38.068 53.6973 38.356C53.4093 38.644 53.2653 38.952 53.2653 39.28V42.316C53.2653 42.5 53.1973 42.66 53.0613 42.796C52.9253 42.932 52.7653 43 52.5813 43H52.3413ZM59.8603 43C59.6763 43 59.5163 42.932 59.3803 42.796C59.2443 42.66 59.1763 42.5 59.1763 42.316V37.444C59.1763 37.26 59.2443 37.1 59.3803 36.964C59.5163 36.828 59.6763 36.76 59.8603 36.76H60.1723C60.3563 36.76 60.5163 36.828 60.6523 36.964C60.7883 37.1 60.8563 37.26 60.8563 37.444V42.316C60.8563 42.5 60.7883 42.66 60.6523 42.796C60.5163 42.932 60.3563 43 60.1723 43H59.8603ZM59.8603 35.44C59.6763 35.44 59.5163 35.372 59.3803 35.236C59.2443 35.1 59.1763 34.94 59.1763 34.756V34.684C59.1763 34.5 59.2443 34.34 59.3803 34.204C59.5163 34.068 59.6763 34 59.8603 34H60.1723C60.3563 34 60.5163 34.068 60.6523 34.204C60.7883 34.34 60.8563 34.5 60.8563 34.684V34.756C60.8563 34.94 60.7883 35.1 60.6523 35.236C60.5163 35.372 60.3563 35.44 60.1723 35.44H59.8603ZM65.019 40.48C64.179 40.296 63.579 40.044 63.219 39.724C62.867 39.404 62.691 38.988 62.691 38.476C62.691 37.9 62.903 37.452 63.327 37.132C63.759 36.804 64.395 36.64 65.235 36.64C65.763 36.64 66.287 36.688 66.807 36.784C66.983 36.816 67.123 36.904 67.227 37.048C67.339 37.184 67.395 37.344 67.395 37.528C67.395 37.68 67.335 37.804 67.215 37.9C67.095 37.988 66.959 38.012 66.807 37.972C66.359 37.86 65.887 37.804 65.391 37.804C64.671 37.804 64.311 38.004 64.311 38.404C64.311 38.596 64.379 38.756 64.515 38.884C64.651 39.012 64.883 39.112 65.211 39.184C66.131 39.368 66.759 39.616 67.095 39.928C67.439 40.24 67.611 40.696 67.611 41.296C67.611 41.872 67.395 42.32 66.963 42.64C66.531 42.96 65.903 43.12 65.079 43.12C64.543 43.12 63.995 43.056 63.435 42.928C63.259 42.888 63.115 42.796 63.003 42.652C62.891 42.5 62.835 42.328 62.835 42.136C62.835 41.984 62.895 41.868 63.015 41.788C63.143 41.708 63.279 41.688 63.423 41.728C63.943 41.872 64.435 41.944 64.899 41.944C65.627 41.944 65.991 41.728 65.991 41.296C65.991 41.088 65.919 40.924 65.775 40.804C65.639 40.684 65.387 40.576 65.019 40.48ZM73.5361 43C73.3521 43 73.1921 42.932 73.0561 42.796C72.9201 42.66 72.8521 42.5 72.8521 42.316V37.444C72.8521 37.26 72.9201 37.1 73.0561 36.964C73.1921 36.828 73.3521 36.76 73.5361 36.76H73.8481C74.0321 36.76 74.1921 36.828 74.3281 36.964C74.4641 37.1 74.5321 37.26 74.5321 37.444V42.316C74.5321 42.5 74.4641 42.66 74.3281 42.796C74.1921 42.932 74.0321 43 73.8481 43H73.5361ZM73.5361 35.44C73.3521 35.44 73.1921 35.372 73.0561 35.236C72.9201 35.1 72.8521 34.94 72.8521 34.756V34.684C72.8521 34.5 72.9201 34.34 73.0561 34.204C73.1921 34.068 73.3521 34 73.5361 34H73.8481C74.0321 34 74.1921 34.068 74.3281 34.204C74.4641 34.34 74.5321 34.5 74.5321 34.684V34.756C74.5321 34.94 74.4641 35.1 74.3281 35.236C74.1921 35.372 74.0321 35.44 73.8481 35.44H73.5361ZM78.6948 40.48C77.8548 40.296 77.2548 40.044 76.8948 39.724C76.5428 39.404 76.3668 38.988 76.3668 38.476C76.3668 37.9 76.5788 37.452 77.0028 37.132C77.4348 36.804 78.0708 36.64 78.9108 36.64C79.4388 36.64 79.9628 36.688 80.4828 36.784C80.6588 36.816 80.7988 36.904 80.9028 37.048C81.0148 37.184 81.0708 37.344 81.0708 37.528C81.0708 37.68 81.0108 37.804 80.8908 37.9C80.7708 37.988 80.6348 38.012 80.4828 37.972C80.0348 37.86 79.5628 37.804 79.0668 37.804C78.3468 37.804 77.9868 38.004 77.9868 38.404C77.9868 38.596 78.0548 38.756 78.1908 38.884C78.3268 39.012 78.5588 39.112 78.8867 39.184C79.8068 39.368 80.4348 39.616 80.7708 39.928C81.1148 40.24 81.2868 40.696 81.2868 41.296C81.2868 41.872 81.0708 42.32 80.6388 42.64C80.2068 42.96 79.5788 43.12 78.7548 43.12C78.2188 43.12 77.6708 43.056 77.1108 42.928C76.9348 42.888 76.7908 42.796 76.6788 42.652C76.5668 42.5 76.5107 42.328 76.5107 42.136C76.5107 41.984 76.5707 41.868 76.6908 41.788C76.8188 41.708 76.9548 41.688 77.0988 41.728C77.6188 41.872 78.1108 41.944 78.5748 41.944C79.3028 41.944 79.6668 41.728 79.6668 41.296C79.6668 41.088 79.5948 40.924 79.4508 40.804C79.3148 40.684 79.0628 40.576 78.6948 40.48ZM88.3158 40.48C87.4758 40.296 86.8758 40.044 86.5158 39.724C86.1638 39.404 85.9878 38.988 85.9878 38.476C85.9878 37.9 86.1998 37.452 86.6238 37.132C87.0558 36.804 87.6918 36.64 88.5318 36.64C89.0598 36.64 89.5838 36.688 90.1038 36.784C90.2798 36.816 90.4198 36.904 90.5238 37.048C90.6358 37.184 90.6918 37.344 90.6918 37.528C90.6918 37.68 90.6318 37.804 90.5118 37.9C90.3918 37.988 90.2558 38.012 90.1038 37.972C89.6558 37.86 89.1838 37.804 88.6878 37.804C87.9678 37.804 87.6078 38.004 87.6078 38.404C87.6078 38.596 87.6758 38.756 87.8118 38.884C87.9478 39.012 88.1798 39.112 88.5078 39.184C89.4278 39.368 90.0558 39.616 90.3918 39.928C90.7358 40.24 90.9078 40.696 90.9078 41.296C90.9078 41.872 90.6918 42.32 90.2598 42.64C89.8278 42.96 89.1998 43.12 88.3758 43.12C87.8398 43.12 87.2918 43.056 86.7318 42.928C86.5558 42.888 86.4118 42.796 86.2998 42.652C86.1878 42.5 86.1318 42.328 86.1318 42.136C86.1318 41.984 86.1918 41.868 86.3118 41.788C86.4398 41.708 86.5758 41.688 86.7198 41.728C87.2398 41.872 87.7318 41.944 88.1958 41.944C88.9238 41.944 89.2878 41.728 89.2878 41.296C89.2878 41.088 89.2158 40.924 89.0718 40.804C88.9358 40.684 88.6838 40.576 88.3158 40.48ZM95.3188 40C94.1748 40 93.6028 40.352 93.6028 41.056C93.6028 41.312 93.6748 41.52 93.8188 41.68C93.9708 41.84 94.1628 41.92 94.3948 41.92C94.8508 41.92 95.2188 41.78 95.4988 41.5C95.7788 41.212 95.9188 40.82 95.9188 40.324V40.108C95.9188 40.036 95.8828 40 95.8108 40H95.3188ZM93.9628 43.12C93.4188 43.12 92.9668 42.944 92.6068 42.592C92.2548 42.232 92.0788 41.768 92.0788 41.2C92.0788 40.504 92.3428 39.964 92.8708 39.58C93.4068 39.196 94.2228 39.004 95.3188 39.004H95.8108C95.8828 39.004 95.9188 38.968 95.9188 38.896V38.8C95.9188 38.432 95.8308 38.176 95.6548 38.032C95.4788 37.88 95.1668 37.804 94.7188 37.804C94.2548 37.804 93.6868 37.888 93.0148 38.056C92.8708 38.096 92.7388 38.072 92.6188 37.984C92.4988 37.888 92.4388 37.764 92.4388 37.612C92.4388 37.428 92.4948 37.264 92.6068 37.12C92.7188 36.968 92.8628 36.876 93.0388 36.844C93.6468 36.708 94.2188 36.64 94.7548 36.64C95.7788 36.64 96.4948 36.824 96.9028 37.192C97.3108 37.56 97.5148 38.204 97.5148 39.124V42.316C97.5148 42.5 97.4468 42.66 97.3108 42.796C97.1828 42.932 97.0268 43 96.8428 43H96.7108C96.5188 43 96.3548 42.936 96.2188 42.808C96.0828 42.672 96.0108 42.508 96.0028 42.316V42.148C96.0028 42.14 95.9988 42.136 95.9908 42.136C95.9748 42.136 95.9668 42.14 95.9668 42.148C95.4788 42.796 94.8108 43.12 93.9628 43.12ZM99.7773 43C99.5933 43 99.4333 42.932 99.2973 42.796C99.1693 42.66 99.1053 42.5 99.1053 42.316V37.444C99.1053 37.26 99.1693 37.1 99.2973 36.964C99.4333 36.828 99.5933 36.76 99.7773 36.76H99.9453C100.129 36.76 100.285 36.824 100.413 36.952C100.549 37.08 100.621 37.236 100.629 37.42V37.504C100.629 37.512 100.633 37.516 100.641 37.516C100.657 37.516 100.665 37.512 100.665 37.504C101.137 36.928 101.669 36.64 102.261 36.64C102.621 36.64 102.909 36.708 103.125 36.844C103.349 36.98 103.545 37.22 103.713 37.564C103.713 37.572 103.721 37.576 103.737 37.576C103.745 37.576 103.753 37.572 103.761 37.564C104.265 36.948 104.833 36.64 105.465 36.64C106.129 36.64 106.605 36.82 106.893 37.18C107.189 37.54 107.337 38.16 107.337 39.04V42.316C107.337 42.5 107.269 42.66 107.133 42.796C107.005 42.932 106.849 43 106.665 43H106.461C106.277 43 106.117 42.932 105.981 42.796C105.845 42.66 105.777 42.5 105.777 42.316V39.28C105.777 38.696 105.721 38.312 105.609 38.128C105.497 37.944 105.281 37.852 104.961 37.852C104.753 37.852 104.545 37.948 104.337 38.14C104.129 38.332 104.025 38.524 104.025 38.716V42.316C104.025 42.5 103.957 42.66 103.821 42.796C103.685 42.932 103.525 43 103.341 43H103.137C102.953 43 102.793 42.932 102.657 42.796C102.529 42.66 102.465 42.5 102.465 42.316V39.28C102.465 38.704 102.405 38.324 102.285 38.14C102.173 37.948 101.957 37.852 101.637 37.852C101.429 37.852 101.221 37.948 101.013 38.14C100.805 38.332 100.701 38.524 100.701 38.716V42.316C100.701 42.5 100.633 42.66 100.497 42.796C100.361 42.932 100.201 43 100.017 43H99.7773ZM110.521 39.064V40.696C110.521 41.016 110.657 41.3 110.929 41.548C111.209 41.796 111.533 41.92 111.901 41.92C112.325 41.92 112.661 41.748 112.909 41.404C113.157 41.06 113.281 40.552 113.281 39.88C113.281 38.52 112.821 37.84 111.901 37.84C111.533 37.84 111.209 37.964 110.929 38.212C110.657 38.46 110.521 38.744 110.521 39.064ZM109.621 45.64C109.437 45.64 109.277 45.572 109.141 45.436C109.005 45.3 108.937 45.14 108.937 44.956V37.444C108.937 37.26 109.005 37.1 109.141 36.964C109.277 36.828 109.437 36.76 109.621 36.76H109.765C109.957 36.76 110.121 36.828 110.257 36.964C110.393 37.092 110.465 37.252 110.473 37.444V37.528C110.473 37.536 110.477 37.54 110.485 37.54C110.493 37.54 110.501 37.536 110.509 37.528C110.797 37.208 111.085 36.98 111.373 36.844C111.661 36.708 111.997 36.64 112.381 36.64C113.133 36.64 113.733 36.924 114.181 37.492C114.629 38.052 114.853 38.848 114.853 39.88C114.853 40.88 114.617 41.672 114.145 42.256C113.681 42.832 113.093 43.12 112.381 43.12C111.685 43.12 111.081 42.868 110.569 42.364C110.561 42.356 110.553 42.352 110.545 42.352C110.537 42.352 110.533 42.356 110.533 42.364V44.956C110.533 45.14 110.465 45.3 110.329 45.436C110.201 45.572 110.045 45.64 109.861 45.64H109.621ZM117.188 43C117.004 43 116.844 42.932 116.708 42.796C116.572 42.66 116.504 42.5 116.504 42.316V34.684C116.504 34.5 116.572 34.34 116.708 34.204C116.844 34.068 117.004 34 117.188 34H117.5C117.684 34 117.844 34.068 117.98 34.204C118.116 34.34 118.184 34.5 118.184 34.684V42.316C118.184 42.5 118.116 42.66 117.98 42.796C117.844 42.932 117.684 43 117.5 43H117.188ZM122.743 37.756C122.335 37.756 122.019 37.872 121.795 38.104C121.579 38.328 121.443 38.692 121.387 39.196C121.387 39.26 121.419 39.292 121.483 39.292H123.835C123.899 39.292 123.931 39.26 123.931 39.196C123.899 38.236 123.503 37.756 122.743 37.756ZM123.043 43.12C121.995 43.12 121.187 42.848 120.619 42.304C120.059 41.752 119.779 40.944 119.779 39.88C119.779 38.824 120.031 38.02 120.535 37.468C121.039 36.916 121.767 36.64 122.719 36.64C124.495 36.64 125.407 37.648 125.455 39.664C125.463 39.856 125.395 40.016 125.251 40.144C125.107 40.272 124.939 40.336 124.747 40.336H121.471C121.399 40.336 121.371 40.372 121.387 40.444C121.443 40.98 121.619 41.372 121.915 41.62C122.219 41.86 122.659 41.98 123.235 41.98C123.595 41.98 123.995 41.92 124.435 41.8C124.579 41.76 124.711 41.784 124.831 41.872C124.959 41.96 125.023 42.08 125.023 42.232C125.023 42.416 124.967 42.58 124.855 42.724C124.751 42.86 124.611 42.944 124.435 42.976C123.987 43.072 123.523 43.12 123.043 43.12ZM130.436 38.164C130.276 38.164 130.14 38.108 130.028 37.996C129.916 37.876 129.86 37.736 129.86 37.576C129.86 37.416 129.916 37.28 130.028 37.168C130.14 37.056 130.276 37 130.436 37H131.012C131.084 37 131.12 36.964 131.12 36.892V35.404C131.12 35.22 131.184 35.06 131.312 34.924C131.448 34.788 131.608 34.72 131.792 34.72H132.032C132.216 34.72 132.376 34.788 132.512 34.924C132.648 35.06 132.716 35.22 132.716 35.404V36.892C132.716 36.964 132.752 37 132.824 37H134.192C134.352 37 134.488 37.056 134.6 37.168C134.72 37.28 134.78 37.416 134.78 37.576C134.78 37.736 134.72 37.876 134.6 37.996C134.488 38.108 134.352 38.164 134.192 38.164H132.824C132.752 38.164 132.716 38.196 132.716 38.26V40.684C132.716 41.204 132.772 41.54 132.884 41.692C132.996 41.844 133.228 41.92 133.58 41.92C133.772 41.92 133.916 41.912 134.012 41.896C134.172 41.88 134.312 41.916 134.432 42.004C134.552 42.092 134.612 42.212 134.612 42.364C134.612 42.54 134.552 42.7 134.432 42.844C134.32 42.98 134.18 43.056 134.012 43.072C133.66 43.104 133.396 43.12 133.22 43.12C132.444 43.12 131.9 42.956 131.588 42.628C131.276 42.292 131.12 41.696 131.12 40.84V38.26C131.12 38.196 131.084 38.164 131.012 38.164H130.436ZM138.868 37.756C138.46 37.756 138.144 37.872 137.92 38.104C137.704 38.328 137.568 38.692 137.512 39.196C137.512 39.26 137.544 39.292 137.608 39.292H139.96C140.024 39.292 140.056 39.26 140.056 39.196C140.024 38.236 139.628 37.756 138.868 37.756ZM139.168 43.12C138.12 43.12 137.312 42.848 136.744 42.304C136.184 41.752 135.904 40.944 135.904 39.88C135.904 38.824 136.156 38.02 136.66 37.468C137.164 36.916 137.892 36.64 138.844 36.64C140.62 36.64 141.532 37.648 141.58 39.664C141.588 39.856 141.52 40.016 141.376 40.144C141.232 40.272 141.064 40.336 140.872 40.336H137.596C137.524 40.336 137.496 40.372 137.512 40.444C137.568 40.98 137.744 41.372 138.04 41.62C138.344 41.86 138.784 41.98 139.36 41.98C139.72 41.98 140.12 41.92 140.56 41.8C140.704 41.76 140.836 41.784 140.956 41.872C141.084 41.96 141.148 42.08 141.148 42.232C141.148 42.416 141.092 42.58 140.98 42.724C140.876 42.86 140.736 42.944 140.56 42.976C140.112 43.072 139.648 43.12 139.168 43.12ZM145.023 40.48C144.183 40.296 143.583 40.044 143.223 39.724C142.871 39.404 142.695 38.988 142.695 38.476C142.695 37.9 142.907 37.452 143.331 37.132C143.763 36.804 144.399 36.64 145.239 36.64C145.767 36.64 146.291 36.688 146.811 36.784C146.987 36.816 147.127 36.904 147.231 37.048C147.343 37.184 147.399 37.344 147.399 37.528C147.399 37.68 147.339 37.804 147.219 37.9C147.099 37.988 146.963 38.012 146.811 37.972C146.363 37.86 145.891 37.804 145.395 37.804C144.675 37.804 144.315 38.004 144.315 38.404C144.315 38.596 144.383 38.756 144.519 38.884C144.655 39.012 144.887 39.112 145.215 39.184C146.135 39.368 146.763 39.616 147.099 39.928C147.443 40.24 147.615 40.696 147.615 41.296C147.615 41.872 147.399 42.32 146.967 42.64C146.535 42.96 145.907 43.12 145.083 43.12C144.547 43.12 143.999 43.056 143.439 42.928C143.263 42.888 143.119 42.796 143.007 42.652C142.895 42.5 142.839 42.328 142.839 42.136C142.839 41.984 142.899 41.868 143.019 41.788C143.147 41.708 143.283 41.688 143.427 41.728C143.947 41.872 144.439 41.944 144.903 41.944C145.631 41.944 145.995 41.728 145.995 41.296C145.995 41.088 145.923 40.924 145.779 40.804C145.643 40.684 145.391 40.576 145.023 40.48ZM149.127 38.164C148.967 38.164 148.831 38.108 148.719 37.996C148.607 37.876 148.551 37.736 148.551 37.576C148.551 37.416 148.607 37.28 148.719 37.168C148.831 37.056 148.967 37 149.127 37H149.703C149.775 37 149.811 36.964 149.811 36.892V35.404C149.811 35.22 149.875 35.06 150.003 34.924C150.139 34.788 150.299 34.72 150.483 34.72H150.723C150.907 34.72 151.067 34.788 151.203 34.924C151.339 35.06 151.407 35.22 151.407 35.404V36.892C151.407 36.964 151.443 37 151.515 37H152.883C153.043 37 153.179 37.056 153.291 37.168C153.411 37.28 153.471 37.416 153.471 37.576C153.471 37.736 153.411 37.876 153.291 37.996C153.179 38.108 153.043 38.164 152.883 38.164H151.515C151.443 38.164 151.407 38.196 151.407 38.26V40.684C151.407 41.204 151.463 41.54 151.575 41.692C151.687 41.844 151.919 41.92 152.271 41.92C152.463 41.92 152.607 41.912 152.703 41.896C152.863 41.88 153.003 41.916 153.123 42.004C153.243 42.092 153.303 42.212 153.303 42.364C153.303 42.54 153.243 42.7 153.123 42.844C153.011 42.98 152.871 43.056 152.703 43.072C152.351 43.104 152.087 43.12 151.911 43.12C151.135 43.12 150.591 42.956 150.279 42.628C149.967 42.292 149.811 41.696 149.811 40.84V38.26C149.811 38.196 149.775 38.164 149.703 38.164H149.127ZM155.94 43C155.756 43 155.596 42.932 155.46 42.796C155.324 42.66 155.256 42.5 155.256 42.316V41.644C155.256 41.46 155.324 41.3 155.46 41.164C155.596 41.028 155.756 40.96 155.94 40.96H156.492C156.676 40.96 156.836 41.028 156.972 41.164C157.108 41.3 157.176 41.46 157.176 41.644V42.316C157.176 42.5 157.108 42.66 156.972 42.796C156.836 42.932 156.676 43 156.492 43H155.94Z" fill="white"/>
<path d="M31.9107 21.7827L24.3185 20.5949L24.0955 20.2052L26.3073 17.1737C26.5491 16.8512 26.146 16.448 25.8101 16.6765L22.7651 18.8977L22.4023 18.6921L21.2145 11.0865C21.1473 10.643 20.5023 10.643 20.4351 11.0865L19.5039 17.0393L14.669 14.2792L14.665 14.2779C13.5363 13.6436 12.3 14.8906 12.9289 16.0127L15.693 20.8515L9.73883 21.7827C9.29539 21.8499 9.29539 22.4949 9.73883 22.5621L17.3498 23.7527L17.5541 24.1074L15.3288 27.1577C15.087 27.4802 15.4901 27.8834 15.826 27.6549L18.8629 25.4404L19.2472 25.6595L20.4351 33.2584C20.5023 33.7018 21.1473 33.7018 21.2145 33.2584L22.1443 27.3109L26.9765 30.0656L26.9818 30.0683C28.1065 30.6972 29.3549 29.4609 28.7193 28.3295L25.966 23.492L31.9107 22.5621C32.3541 22.4949 32.3541 21.8499 31.9107 21.7827Z" fill="white"/>
<path d="M34.6231 10.3912C35.1297 10.621 35.6913 10.75 36.2812 10.75C38.4984 10.75 40.3125 8.93594 40.3125 6.71875C40.3125 4.50156 38.4984 2.6875 36.2812 2.6875C34.0641 2.6875 32.25 4.50156 32.25 6.71875C32.25 7.31 32.379 7.87034 32.6088 8.37694C29.3275 5.56698 25.1482 4.02531 20.8281 4.03125C10.8091 4.03125 2.6875 12.1529 2.6875 22.1719C2.6875 32.1909 10.8091 40.3125 20.8281 40.3125C30.8471 40.3125 38.9688 32.1909 38.9688 22.1719C38.9747 17.8518 37.433 13.6725 34.6231 10.3912ZM35.8916 7.095C35.6602 6.86876 35.3531 6.73628 35.0298 6.72312C34.7064 6.70997 34.3897 6.81708 34.1407 7.02378C34.1006 6.73125 34.1208 6.4336 34.2002 6.1492C34.2796 5.86479 34.4163 5.59965 34.6021 5.37013C34.7878 5.14061 35.0186 4.95157 35.2802 4.81466C35.5419 4.67775 35.8287 4.59588 36.1232 4.57409C36.4177 4.55231 36.7135 4.59106 36.9924 4.68798C37.2713 4.78489 37.5274 4.9379 37.7449 5.13759C37.9624 5.33727 38.1367 5.57939 38.2571 5.84901C38.3774 6.11864 38.4413 6.41006 38.4447 6.70531C38.4448 7.01653 38.3778 7.32412 38.2482 7.60707C38.1186 7.89003 37.9295 8.14169 37.6938 8.34489C37.4581 8.54809 37.1813 8.69804 36.8823 8.7845C36.5833 8.87097 36.2692 8.89191 35.9614 8.84591C36.1695 8.59756 36.2775 8.28066 36.2646 7.95696C36.2517 7.63326 36.1187 7.32598 35.8916 7.095ZM34.9375 22.1719C34.9375 29.9643 28.6205 36.2812 20.8281 36.2812C13.0357 36.2812 6.71875 29.9643 6.71875 22.1719C6.71875 14.3795 13.0357 8.0625 20.8281 8.0625C28.6205 8.0625 34.9375 14.3795 34.9375 22.1719Z" fill="white"/>
</svg>
