<?xml version="1.0" encoding="UTF-8"?>
<svg id="_x32_" xmlns="http://www.w3.org/2000/svg" version="1.1" viewBox="0 0 512 512">
  <!-- Generator: Adobe Illustrator 29.8.3, SVG Export Plug-In . SVG Version: 2.1.1 Build 3)  -->
  <path d="M479.55,265.76c-2.4-6.28-2.4-13.23,0-19.52l19.47-51.11c4.6-12.06.17-25.67-10.62-32.72l-45.81-29.9c-5.63-3.68-9.71-9.31-11.47-15.8l-14.29-52.8c-3.37-12.44-14.96-20.86-27.83-20.22l-54.63,2.73c-6.72.33-13.33-1.81-18.57-6.04l-42.59-34.31c-10.04-8.09-24.36-8.09-34.4,0l-42.6,34.31c-5.24,4.22-11.85,6.37-18.57,6.04l-54.63-2.73c-12.87-.64-24.46,7.78-27.83,20.22l-14.29,52.8c-1.76,6.49-5.84,12.12-11.47,15.8l-45.81,29.91c-10.79,7.05-15.22,20.66-10.63,32.72l19.48,51.11c2.4,6.29,2.4,13.24,0,19.52l-19.48,51.12c-4.59,12.04-.16,25.67,10.63,32.72l45.8,29.91c5.63,3.67,9.71,9.29,11.47,15.79l14.29,52.8c3.37,12.46,14.96,20.87,27.83,20.23l54.63-2.73c6.72-.34,13.33,1.81,18.57,6.03l42.59,34.31c10.04,8.09,24.36,8.09,34.4,0l42.59-34.31c5.24-4.22,11.85-6.37,18.57-6.03l54.63,2.73c12.87.64,24.46-7.77,27.83-20.23l14.3-52.8c1.76-6.5,5.84-12.12,11.47-15.79l45.81-29.91c10.79-7.05,15.22-20.67,10.62-32.72l-19.47-51.12ZM249.07,370.67l-34.57,1.33-94.83-117.88,39-37.23,65.58,74.45s72.68-113.46,144.47-153.35l22.6,10.64s-97.94,89.07-142.26,222.03Z"/>
</svg>