<svg width="40" height="40" viewBox="0 0 40 40" fill="none" xmlns="http://www.w3.org/2000/svg">
<path d="M13.0026 3.33398H27.0026C32.3359 3.33398 36.6693 7.66732 36.6693 13.0007V27.0007C36.6693 29.5644 35.6508 32.0232 33.838 33.836C32.0251 35.6489 29.5664 36.6673 27.0026 36.6673H13.0026C7.66927 36.6673 3.33594 32.334 3.33594 27.0007V13.0007C3.33594 10.4369 4.35439 7.97814 6.16724 6.16529C7.98009 4.35243 10.4388 3.33398 13.0026 3.33398ZM12.6693 6.66732C11.078 6.66732 9.55185 7.29946 8.42663 8.42468C7.30141 9.5499 6.66927 11.076 6.66927 12.6673V27.334C6.66927 30.6506 9.3526 33.334 12.6693 33.334H27.3359C28.9272 33.334 30.4534 32.7018 31.5786 31.5766C32.7038 30.4514 33.3359 28.9253 33.3359 27.334V12.6673C33.3359 9.35065 30.6526 6.66732 27.3359 6.66732H12.6693ZM28.7526 9.16732C29.3051 9.16732 29.835 9.38681 30.2257 9.77751C30.6164 10.1682 30.8359 10.6981 30.8359 11.2507C30.8359 11.8032 30.6164 12.3331 30.2257 12.7238C29.835 13.1145 29.3051 13.334 28.7526 13.334C28.2001 13.334 27.6702 13.1145 27.2795 12.7238C26.8888 12.3331 26.6693 11.8032 26.6693 11.2507C26.6693 10.6981 26.8888 10.1682 27.2795 9.77751C27.6702 9.38681 28.2001 9.16732 28.7526 9.16732ZM20.0026 11.6673C22.2127 11.6673 24.3324 12.5453 25.8952 14.1081C27.458 15.6709 28.3359 17.7905 28.3359 20.0007C28.3359 22.2108 27.458 24.3304 25.8952 25.8932C24.3324 27.456 22.2127 28.334 20.0026 28.334C17.7925 28.334 15.6729 27.456 14.11 25.8932C12.5472 24.3304 11.6693 22.2108 11.6693 20.0007C11.6693 17.7905 12.5472 15.6709 14.11 14.1081C15.6729 12.5453 17.7925 11.6673 20.0026 11.6673ZM20.0026 15.0007C18.6765 15.0007 17.4048 15.5274 16.4671 16.4651C15.5294 17.4028 15.0026 18.6746 15.0026 20.0007C15.0026 21.3267 15.5294 22.5985 16.4671 23.5362C17.4048 24.4739 18.6765 25.0007 20.0026 25.0007C21.3287 25.0007 22.6005 24.4739 23.5381 23.5362C24.4758 22.5985 25.0026 21.3267 25.0026 20.0007C25.0026 18.6746 24.4758 17.4028 23.5381 16.4651C22.6005 15.5274 21.3287 15.0007 20.0026 15.0007Z" fill="white"/>
</svg>
