<svg width="205" height="46" viewBox="0 0 205 46" fill="none" xmlns="http://www.w3.org/2000/svg">
<path d="M52.1 29.4C50.5167 29.4 49.1 29.025 47.85 28.275C46.6167 27.525 45.65 26.4667 44.95 25.1C44.25 23.7167 43.9 22.1 43.9 20.25C43.9 18.3833 44.25 16.7667 44.95 15.4C45.65 14.0167 46.6167 12.95 47.85 12.2C49.1 11.4333 50.5167 11.05 52.1 11.05C53.6833 11.05 55.0833 11.4333 56.3 12.2C57.5333 12.95 58.5 14.0167 59.2 15.4C59.9167 16.7667 60.275 18.3833 60.275 20.25C60.275 21.15 60.1833 22 60 22.8C59.8333 23.5833 59.5833 24.3083 59.25 24.975L60.725 26.125C61.5083 26.7083 61.6 27.3917 61 28.175C60.3667 28.975 59.6917 29.0917 58.975 28.525L57.5 27.375C56.8 28.025 55.9917 28.525 55.075 28.875C54.175 29.225 53.1833 29.4 52.1 29.4ZM52.1 26.6C52.6833 26.6 53.2333 26.5083 53.75 26.325C54.2667 26.125 54.725 25.8583 55.125 25.525L53.925 24.6C53.1583 23.9667 53.0667 23.275 53.65 22.525C54.25 21.775 54.8667 21.6333 55.5 22.1L56.775 23.125C56.925 22.7083 57.0417 22.2583 57.125 21.775C57.2083 21.2917 57.25 20.7833 57.25 20.25C57.25 18.9667 57.0333 17.85 56.6 16.9C56.1833 15.9333 55.5917 15.1917 54.825 14.675C54.0583 14.1417 53.15 13.875 52.1 13.875C51.0667 13.875 50.1583 14.1417 49.375 14.675C48.5917 15.1917 47.9833 15.9333 47.55 16.9C47.1333 17.85 46.925 18.9667 46.925 20.25C46.925 21.5167 47.1333 22.6333 47.55 23.6C47.9833 24.55 48.5917 25.2917 49.375 25.825C50.1583 26.3417 51.0667 26.6 52.1 26.6ZM64.4141 29C63.4307 29 62.9391 28.5083 62.9391 27.525V12.975C62.9391 11.9917 63.4141 11.5 64.3641 11.5C65.3307 11.5 65.8141 11.9917 65.8141 12.975V26.325H73.4641C74.4474 26.325 74.9391 26.7667 74.9391 27.65C74.9391 28.55 74.4474 29 73.4641 29H64.4141ZM78.6219 29C77.6719 29 77.1969 28.5083 77.1969 27.525V12.975C77.1969 11.9917 77.6719 11.5 78.6219 11.5C79.5885 11.5 80.0719 11.9917 80.0719 12.975V27.525C80.0719 28.5083 79.5885 29 78.6219 29ZM85.0428 29C84.0928 29 83.6178 28.5083 83.6178 27.525V12.975C83.6178 11.9917 84.1094 11.5 85.0928 11.5H91.6178C93.2511 11.5 94.5428 11.8833 95.4928 12.65C96.4594 13.4167 96.9428 14.7083 96.9428 16.525C96.9428 18.3417 96.4594 19.6417 95.4928 20.425C94.5428 21.2083 93.2511 21.6 91.6178 21.6H86.4928V27.525C86.4928 28.5083 86.0094 29 85.0428 29ZM86.4928 18.9H91.2178C92.0678 18.9 92.7261 18.7167 93.1928 18.35C93.6594 17.9833 93.8928 17.375 93.8928 16.525C93.8928 15.6917 93.6594 15.0917 93.1928 14.725C92.7261 14.3583 92.0678 14.175 91.2178 14.175H86.4928V18.9ZM113.721 29.4C112.138 29.4 110.721 29.025 109.471 28.275C108.238 27.525 107.271 26.4667 106.571 25.1C105.871 23.7167 105.521 22.1 105.521 20.25C105.521 18.3833 105.871 16.7667 106.571 15.4C107.271 14.0167 108.238 12.95 109.471 12.2C110.721 11.4333 112.138 11.05 113.721 11.05C114.904 11.05 115.988 11.2667 116.971 11.7C117.971 12.1333 118.838 12.7417 119.571 13.525C119.904 13.8917 120.013 14.2667 119.896 14.65C119.779 15.0167 119.554 15.3 119.221 15.5L119.096 15.575C118.879 15.7083 118.571 15.7583 118.171 15.725C117.771 15.6917 117.404 15.5167 117.071 15.2C116.638 14.7667 116.138 14.4417 115.571 14.225C115.021 13.9917 114.404 13.875 113.721 13.875C112.688 13.875 111.779 14.1417 110.996 14.675C110.213 15.1917 109.604 15.9333 109.171 16.9C108.754 17.85 108.546 18.9667 108.546 20.25C108.546 21.5167 108.754 22.6333 109.171 23.6C109.604 24.55 110.213 25.2917 110.996 25.825C111.779 26.3417 112.688 26.6 113.721 26.6C115.038 26.6 116.154 26.1583 117.071 25.275C117.404 24.9583 117.746 24.775 118.096 24.725C118.446 24.675 118.779 24.725 119.096 24.875L119.146 24.925C119.496 25.0917 119.738 25.375 119.871 25.775C120.021 26.1583 119.938 26.5333 119.621 26.9C118.888 27.7 118.021 28.3167 117.021 28.75C116.021 29.1833 114.921 29.4 113.721 29.4ZM128.118 29.275C127.018 29.275 126.026 29.0167 125.143 28.5C124.276 27.9667 123.585 27.2333 123.068 26.3C122.568 25.35 122.318 24.2417 122.318 22.975C122.318 21.7083 122.568 20.6083 123.068 19.675C123.585 18.725 124.276 17.9917 125.143 17.475C126.026 16.9417 127.018 16.675 128.118 16.675C129.251 16.675 130.251 16.9417 131.118 17.475C132.001 17.9917 132.693 18.725 133.193 19.675C133.693 20.6083 133.943 21.7083 133.943 22.975C133.943 24.2417 133.693 25.35 133.193 26.3C132.693 27.2333 132.001 27.9667 131.118 28.5C130.251 29.0167 129.251 29.275 128.118 29.275ZM128.118 26.725C129.001 26.725 129.718 26.4 130.268 25.75C130.835 25.1 131.118 24.175 131.118 22.975C131.118 21.775 130.835 20.85 130.268 20.2C129.718 19.55 129.001 19.225 128.118 19.225C127.251 19.225 126.543 19.55 125.993 20.2C125.443 20.85 125.168 21.775 125.168 22.975C125.168 24.175 125.443 25.1 125.993 25.75C126.543 26.4 127.251 26.725 128.118 26.725ZM137.796 29C136.846 29 136.371 28.5083 136.371 27.525V18.45C136.371 17.4667 136.796 16.975 137.646 16.975C138.479 16.975 138.921 17.1917 138.971 17.625L139.071 18.425C139.304 17.925 139.696 17.5083 140.246 17.175C140.796 16.8417 141.429 16.675 142.146 16.675C142.929 16.675 143.612 16.8583 144.196 17.225C144.779 17.5917 145.229 18.1167 145.546 18.8C145.862 18.1833 146.321 17.675 146.921 17.275C147.537 16.875 148.237 16.675 149.021 16.675C150.204 16.675 151.154 17.0917 151.871 17.925C152.604 18.7417 152.971 19.9 152.971 21.4V27.525C152.971 28.5083 152.504 29 151.571 29C150.604 29 150.121 28.5083 150.121 27.525V22.05C150.121 21.1667 149.962 20.475 149.646 19.975C149.329 19.475 148.887 19.225 148.321 19.225C147.604 19.225 147.046 19.4833 146.646 20C146.262 20.5167 146.071 21.25 146.071 22.2V27.525C146.071 28.5083 145.604 29 144.671 29C143.721 29 143.246 28.5083 143.246 27.525V22.05C143.246 21.1667 143.079 20.475 142.746 19.975C142.412 19.475 141.962 19.225 141.396 19.225C140.696 19.225 140.154 19.4917 139.771 20.025C139.387 20.5417 139.196 21.2667 139.196 22.2V27.525C139.196 28.5083 138.729 29 137.796 29ZM157.449 33.925C156.499 33.925 156.024 33.4333 156.024 32.45V18.45C156.024 17.4667 156.441 16.975 157.274 16.975C158.074 16.975 158.499 17.15 158.549 17.5L158.624 18.3C159.474 17.2167 160.591 16.675 161.974 16.675C163.091 16.675 164.082 16.925 164.949 17.425C165.832 17.925 166.524 18.65 167.024 19.6C167.524 20.5333 167.774 21.6583 167.774 22.975C167.774 24.2917 167.524 25.425 167.024 26.375C166.524 27.3083 165.832 28.025 164.949 28.525C164.082 29.025 163.091 29.275 161.974 29.275C161.357 29.275 160.782 29.1583 160.249 28.925C159.716 28.675 159.249 28.3333 158.849 27.9V32.45C158.849 32.9167 158.724 33.275 158.474 33.525C158.241 33.7917 157.899 33.925 157.449 33.925ZM161.874 26.725C162.757 26.725 163.491 26.4 164.074 25.75C164.657 25.1 164.949 24.175 164.949 22.975C164.949 21.775 164.657 20.85 164.074 20.2C163.491 19.55 162.757 19.225 161.874 19.225C160.991 19.225 160.257 19.55 159.674 20.2C159.091 20.85 158.799 21.775 158.799 22.975C158.799 24.175 159.091 25.1 159.674 25.75C160.257 26.4 160.991 26.725 161.874 26.725ZM173.914 29.175C172.614 29.225 171.539 28.9417 170.689 28.325C169.856 27.7083 169.439 26.8167 169.439 25.65C169.439 24.8 169.698 24.075 170.214 23.475C170.731 22.875 171.398 22.4083 172.214 22.075C173.031 21.725 173.873 21.5417 174.739 21.525C175.173 21.4917 175.581 21.525 175.964 21.625C176.348 21.725 176.689 21.8667 176.989 22.05V21C176.989 20.2167 176.823 19.7083 176.489 19.475C176.156 19.2417 175.664 19.125 175.014 19.125C174.548 19.125 174.056 19.1833 173.539 19.3C173.039 19.4167 172.548 19.575 172.064 19.775C171.631 19.9583 171.256 20.025 170.939 19.975C170.639 19.925 170.389 19.725 170.189 19.375C169.989 19.025 169.939 18.6917 170.039 18.375C170.156 18.0417 170.439 17.7833 170.889 17.6C171.489 17.3167 172.139 17.0917 172.839 16.925C173.556 16.7583 174.281 16.675 175.014 16.675C176.564 16.675 177.731 16.9917 178.514 17.625C179.298 18.2417 179.689 19.3667 179.689 21V26.525C179.689 26.6917 179.706 26.825 179.739 26.925C179.789 27.025 179.831 27.1 179.864 27.15C180.014 27.3667 180.173 27.4917 180.339 27.525C180.523 27.5583 180.681 27.5833 180.814 27.6C180.948 27.6 181.014 27.675 181.014 27.825C181.014 28.125 180.931 28.3833 180.764 28.6C180.614 28.8167 180.356 28.9667 179.989 29.05C179.606 29.1333 179.231 29.175 178.864 29.175C178.348 29.175 177.948 29.0917 177.664 28.925C177.398 28.7417 177.206 28.4417 177.089 28.025C176.673 28.375 176.189 28.65 175.639 28.85C175.089 29.0333 174.514 29.1417 173.914 29.175ZM173.864 26.725C174.798 26.6917 175.564 26.5083 176.164 26.175C176.781 25.8417 177.073 25.3667 177.039 24.75C177.023 24.35 176.814 24.075 176.414 23.925C176.031 23.775 175.548 23.7167 174.964 23.75C174.148 23.7667 173.473 23.975 172.939 24.375C172.406 24.7583 172.148 25.1917 172.164 25.675C172.198 26.425 172.764 26.775 173.864 26.725ZM187.644 29.25C186.894 29.25 186.177 29.1583 185.494 28.975C184.827 28.775 184.211 28.475 183.644 28.075C183.227 27.7917 183.002 27.4833 182.969 27.15C182.952 26.8 183.086 26.4667 183.369 26.15C183.652 25.85 183.944 25.7083 184.244 25.725C184.561 25.7417 184.927 25.8667 185.344 26.1C186.011 26.5667 186.827 26.8 187.794 26.8C188.477 26.8 188.969 26.7083 189.269 26.525C189.586 26.325 189.744 25.9667 189.744 25.45C189.744 25.2 189.669 25 189.519 24.85C189.369 24.6833 189.086 24.5333 188.669 24.4C188.269 24.2667 187.677 24.125 186.894 23.975C185.727 23.7417 184.794 23.3583 184.094 22.825C183.394 22.2917 183.044 21.45 183.044 20.3C183.044 19.55 183.244 18.9083 183.644 18.375C184.044 17.825 184.586 17.4 185.269 17.1C185.952 16.8 186.711 16.65 187.544 16.65C188.844 16.65 189.944 16.925 190.844 17.475C191.294 17.7083 191.544 18 191.594 18.35C191.661 18.6833 191.569 19.0083 191.319 19.325C191.052 19.6583 190.761 19.825 190.444 19.825C190.144 19.825 189.786 19.7333 189.369 19.55C189.102 19.4 188.819 19.2917 188.519 19.225C188.236 19.1583 187.927 19.125 187.594 19.125C186.977 19.125 186.536 19.2333 186.269 19.45C186.019 19.6667 185.894 19.925 185.894 20.225C185.894 20.4417 185.952 20.625 186.069 20.775C186.202 20.925 186.452 21.0667 186.819 21.2C187.186 21.3333 187.719 21.4833 188.419 21.65C189.752 21.9667 190.786 22.425 191.519 23.025C192.252 23.625 192.619 24.4667 192.619 25.55C192.619 26.7667 192.152 27.6917 191.219 28.325C190.302 28.9417 189.111 29.25 187.644 29.25ZM199.167 29.25C198.417 29.25 197.701 29.1583 197.017 28.975C196.351 28.775 195.734 28.475 195.167 28.075C194.751 27.7917 194.526 27.4833 194.492 27.15C194.476 26.8 194.609 26.4667 194.892 26.15C195.176 25.85 195.467 25.7083 195.767 25.725C196.084 25.7417 196.451 25.8667 196.867 26.1C197.534 26.5667 198.351 26.8 199.317 26.8C200.001 26.8 200.492 26.7083 200.792 26.525C201.109 26.325 201.267 25.9667 201.267 25.45C201.267 25.2 201.192 25 201.042 24.85C200.892 24.6833 200.609 24.5333 200.192 24.4C199.792 24.2667 199.201 24.125 198.417 23.975C197.251 23.7417 196.317 23.3583 195.617 22.825C194.917 22.2917 194.567 21.45 194.567 20.3C194.567 19.55 194.767 18.9083 195.167 18.375C195.567 17.825 196.109 17.4 196.792 17.1C197.476 16.8 198.234 16.65 199.067 16.65C200.367 16.65 201.467 16.925 202.367 17.475C202.817 17.7083 203.067 18 203.117 18.35C203.184 18.6833 203.092 19.0083 202.842 19.325C202.576 19.6583 202.284 19.825 201.967 19.825C201.667 19.825 201.309 19.7333 200.892 19.55C200.626 19.4 200.342 19.2917 200.042 19.225C199.759 19.1583 199.451 19.125 199.117 19.125C198.501 19.125 198.059 19.2333 197.792 19.45C197.542 19.6667 197.417 19.925 197.417 20.225C197.417 20.4417 197.476 20.625 197.592 20.775C197.726 20.925 197.976 21.0667 198.342 21.2C198.709 21.3333 199.242 21.4833 199.942 21.65C201.276 21.9667 202.309 22.425 203.042 23.025C203.776 23.625 204.142 24.4667 204.142 25.55C204.142 26.7667 203.676 27.6917 202.742 28.325C201.826 28.9417 200.634 29.25 199.167 29.25Z" fill="black"/>
<path d="M46.576 43C46.104 43 45.868 42.764 45.868 42.292V35.884H44.044C43.572 35.884 43.336 35.672 43.336 35.248C43.336 34.816 43.572 34.6 44.044 34.6H49.072C49.552 34.6 49.792 34.816 49.792 35.248C49.792 35.672 49.552 35.884 49.072 35.884H47.272V42.292C47.272 42.764 47.04 43 46.576 43ZM51.5293 43C51.0733 43 50.8453 42.764 50.8453 42.292V35.152C50.8453 34.68 51.0733 34.444 51.5293 34.444C51.9773 34.444 52.2013 34.68 52.2013 35.152V37.912C52.3293 37.688 52.5213 37.496 52.7773 37.336C53.0333 37.168 53.3413 37.084 53.7013 37.084C54.3013 37.084 54.7893 37.276 55.1653 37.66C55.5493 38.044 55.7413 38.608 55.7413 39.352V42.292C55.7413 42.764 55.5173 43 55.0693 43C54.6133 43 54.3853 42.764 54.3853 42.292V39.676C54.3853 39.22 54.2933 38.88 54.1093 38.656C53.9253 38.424 53.6773 38.308 53.3653 38.308C53.0213 38.308 52.7413 38.428 52.5253 38.668C52.3093 38.9 52.2013 39.248 52.2013 39.712V42.292C52.2013 42.764 51.9773 43 51.5293 43ZM58.0843 43C57.6363 43 57.4123 42.764 57.4123 42.292V37.936C57.4123 37.464 57.6363 37.228 58.0843 37.228C58.5323 37.228 58.7563 37.464 58.7563 37.936V42.292C58.7563 42.764 58.5323 43 58.0843 43ZM58.0723 36.28C57.8403 36.28 57.6403 36.196 57.4723 36.028C57.3043 35.86 57.2203 35.66 57.2203 35.428C57.2203 35.196 57.3043 34.996 57.4723 34.828C57.6403 34.66 57.8403 34.576 58.0723 34.576C58.3043 34.576 58.5043 34.66 58.6723 34.828C58.8403 34.996 58.9243 35.196 58.9243 35.428C58.9243 35.66 58.8403 35.86 58.6723 36.028C58.5043 36.196 58.3043 36.28 58.0723 36.28ZM62.4603 43.12C62.1003 43.12 61.7563 43.076 61.4283 42.988C61.1083 42.892 60.8123 42.748 60.5403 42.556C60.3403 42.42 60.2323 42.272 60.2163 42.112C60.2083 41.944 60.2723 41.784 60.4083 41.632C60.5443 41.488 60.6843 41.42 60.8283 41.428C60.9803 41.436 61.1563 41.496 61.3563 41.608C61.6763 41.832 62.0683 41.944 62.5323 41.944C62.8603 41.944 63.0963 41.9 63.2403 41.812C63.3923 41.716 63.4683 41.544 63.4683 41.296C63.4683 41.176 63.4323 41.08 63.3603 41.008C63.2883 40.928 63.1523 40.856 62.9523 40.792C62.7603 40.728 62.4763 40.66 62.1003 40.588C61.5403 40.476 61.0923 40.292 60.7563 40.036C60.4203 39.78 60.2523 39.376 60.2523 38.824C60.2523 38.464 60.3483 38.156 60.5403 37.9C60.7323 37.636 60.9923 37.432 61.3203 37.288C61.6483 37.144 62.0123 37.072 62.4123 37.072C63.0363 37.072 63.5643 37.204 63.9963 37.468C64.2123 37.58 64.3323 37.72 64.3563 37.888C64.3883 38.048 64.3443 38.204 64.2243 38.356C64.0963 38.516 63.9563 38.596 63.8043 38.596C63.6603 38.596 63.4883 38.552 63.2883 38.464C63.1603 38.392 63.0243 38.34 62.8803 38.308C62.7443 38.276 62.5963 38.26 62.4363 38.26C62.1403 38.26 61.9283 38.312 61.8003 38.416C61.6803 38.52 61.6203 38.644 61.6203 38.788C61.6203 38.892 61.6483 38.98 61.7043 39.052C61.7683 39.124 61.8883 39.192 62.0643 39.256C62.2403 39.32 62.4963 39.392 62.8323 39.472C63.4723 39.624 63.9683 39.844 64.3203 40.132C64.6723 40.42 64.8483 40.824 64.8483 41.344C64.8483 41.928 64.6243 42.372 64.1763 42.676C63.7363 42.972 63.1643 43.12 62.4603 43.12ZM70.1429 43C69.6949 43 69.4709 42.764 69.4709 42.292V37.936C69.4709 37.464 69.6949 37.228 70.1429 37.228C70.5909 37.228 70.8149 37.464 70.8149 37.936V42.292C70.8149 42.764 70.5909 43 70.1429 43ZM70.1309 36.28C69.8989 36.28 69.6989 36.196 69.5309 36.028C69.3629 35.86 69.2789 35.66 69.2789 35.428C69.2789 35.196 69.3629 34.996 69.5309 34.828C69.6989 34.66 69.8989 34.576 70.1309 34.576C70.3629 34.576 70.5629 34.66 70.7309 34.828C70.8989 34.996 70.9829 35.196 70.9829 35.428C70.9829 35.66 70.8989 35.86 70.7309 36.028C70.5629 36.196 70.3629 36.28 70.1309 36.28ZM74.5189 43.12C74.1589 43.12 73.8149 43.076 73.4869 42.988C73.1669 42.892 72.8709 42.748 72.5989 42.556C72.3989 42.42 72.2909 42.272 72.2749 42.112C72.2669 41.944 72.3309 41.784 72.4669 41.632C72.6029 41.488 72.7429 41.42 72.8869 41.428C73.0389 41.436 73.2149 41.496 73.4149 41.608C73.7349 41.832 74.1269 41.944 74.5909 41.944C74.9189 41.944 75.1549 41.9 75.2989 41.812C75.4509 41.716 75.5269 41.544 75.5269 41.296C75.5269 41.176 75.4909 41.08 75.4189 41.008C75.3469 40.928 75.2109 40.856 75.0109 40.792C74.8189 40.728 74.5349 40.66 74.1589 40.588C73.5989 40.476 73.1509 40.292 72.8149 40.036C72.4789 39.78 72.3109 39.376 72.3109 38.824C72.3109 38.464 72.4069 38.156 72.5989 37.9C72.7909 37.636 73.0509 37.432 73.3789 37.288C73.7069 37.144 74.0709 37.072 74.4709 37.072C75.0949 37.072 75.6229 37.204 76.0549 37.468C76.2709 37.58 76.3909 37.72 76.4149 37.888C76.4469 38.048 76.4029 38.204 76.2829 38.356C76.1549 38.516 76.0149 38.596 75.8629 38.596C75.7189 38.596 75.5469 38.552 75.3469 38.464C75.2189 38.392 75.0829 38.34 74.9389 38.308C74.8029 38.276 74.6549 38.26 74.4949 38.26C74.1989 38.26 73.9869 38.312 73.8589 38.416C73.7389 38.52 73.6789 38.644 73.6789 38.788C73.6789 38.892 73.7069 38.98 73.7629 39.052C73.8269 39.124 73.9469 39.192 74.1229 39.256C74.2989 39.32 74.5549 39.392 74.8909 39.472C75.5309 39.624 76.0269 39.844 76.3789 40.132C76.7309 40.42 76.9069 40.824 76.9069 41.344C76.9069 41.928 76.6829 42.372 76.2349 42.676C75.7949 42.972 75.2229 43.12 74.5189 43.12ZM83.4135 43.12C83.0535 43.12 82.7095 43.076 82.3815 42.988C82.0615 42.892 81.7655 42.748 81.4935 42.556C81.2935 42.42 81.1855 42.272 81.1695 42.112C81.1615 41.944 81.2255 41.784 81.3615 41.632C81.4975 41.488 81.6375 41.42 81.7815 41.428C81.9335 41.436 82.1095 41.496 82.3095 41.608C82.6295 41.832 83.0215 41.944 83.4855 41.944C83.8135 41.944 84.0495 41.9 84.1935 41.812C84.3455 41.716 84.4215 41.544 84.4215 41.296C84.4215 41.176 84.3855 41.08 84.3135 41.008C84.2415 40.928 84.1055 40.856 83.9055 40.792C83.7135 40.728 83.4295 40.66 83.0535 40.588C82.4935 40.476 82.0455 40.292 81.7095 40.036C81.3735 39.78 81.2055 39.376 81.2055 38.824C81.2055 38.464 81.3015 38.156 81.4935 37.9C81.6855 37.636 81.9455 37.432 82.2735 37.288C82.6015 37.144 82.9655 37.072 83.3655 37.072C83.9895 37.072 84.5175 37.204 84.9495 37.468C85.1655 37.58 85.2855 37.72 85.3095 37.888C85.3415 38.048 85.2975 38.204 85.1775 38.356C85.0495 38.516 84.9095 38.596 84.7575 38.596C84.6135 38.596 84.4415 38.552 84.2415 38.464C84.1135 38.392 83.9775 38.34 83.8335 38.308C83.6975 38.276 83.5495 38.26 83.3895 38.26C83.0935 38.26 82.8815 38.312 82.7535 38.416C82.6335 38.52 82.5735 38.644 82.5735 38.788C82.5735 38.892 82.6015 38.98 82.6575 39.052C82.7215 39.124 82.8415 39.192 83.0175 39.256C83.1935 39.32 83.4495 39.392 83.7855 39.472C84.4255 39.624 84.9215 39.844 85.2735 40.132C85.6255 40.42 85.8015 40.824 85.8015 41.344C85.8015 41.928 85.5775 42.372 85.1295 42.676C84.6895 42.972 84.1175 43.12 83.4135 43.12ZM88.7647 43.084C88.1407 43.108 87.6247 42.972 87.2167 42.676C86.8167 42.38 86.6167 41.952 86.6167 41.392C86.6167 40.984 86.7407 40.636 86.9887 40.348C87.2367 40.06 87.5567 39.836 87.9487 39.676C88.3407 39.508 88.7447 39.42 89.1607 39.412C89.3687 39.396 89.5647 39.412 89.7487 39.46C89.9327 39.508 90.0967 39.576 90.2407 39.664V39.16C90.2407 38.784 90.1607 38.54 90.0007 38.428C89.8407 38.316 89.6047 38.26 89.2927 38.26C89.0687 38.26 88.8327 38.288 88.5847 38.344C88.3447 38.4 88.1087 38.476 87.8767 38.572C87.6687 38.66 87.4887 38.692 87.3367 38.668C87.1927 38.644 87.0727 38.548 86.9767 38.38C86.8807 38.212 86.8567 38.052 86.9047 37.9C86.9607 37.74 87.0967 37.616 87.3127 37.528C87.6007 37.392 87.9127 37.284 88.2487 37.204C88.5927 37.124 88.9407 37.084 89.2927 37.084C90.0367 37.084 90.5967 37.236 90.9727 37.54C91.3487 37.836 91.5367 38.376 91.5367 39.16V41.812C91.5367 41.892 91.5447 41.956 91.5607 42.004C91.5847 42.052 91.6047 42.088 91.6207 42.112C91.6927 42.216 91.7687 42.276 91.8487 42.292C91.9367 42.308 92.0127 42.32 92.0767 42.328C92.1407 42.328 92.1727 42.364 92.1727 42.436C92.1727 42.58 92.1327 42.704 92.0527 42.808C91.9807 42.912 91.8567 42.984 91.6807 43.024C91.4967 43.064 91.3167 43.084 91.1407 43.084C90.8927 43.084 90.7007 43.044 90.5647 42.964C90.4367 42.876 90.3447 42.732 90.2887 42.532C90.0887 42.7 89.8567 42.832 89.5927 42.928C89.3287 43.016 89.0527 43.068 88.7647 43.084ZM88.7407 41.908C89.1887 41.892 89.5567 41.804 89.8447 41.644C90.1407 41.484 90.2807 41.256 90.2647 40.96C90.2567 40.768 90.1567 40.636 89.9647 40.564C89.7807 40.492 89.5487 40.464 89.2687 40.48C88.8767 40.488 88.5527 40.588 88.2967 40.78C88.0407 40.964 87.9167 41.172 87.9247 41.404C87.9407 41.764 88.2127 41.932 88.7407 41.908ZM93.9629 43C93.5069 43 93.2789 42.764 93.2789 42.292V37.936C93.2789 37.464 93.4829 37.228 93.8909 37.228C94.2909 37.228 94.5029 37.332 94.5269 37.54L94.5749 37.924C94.6869 37.684 94.8749 37.484 95.1389 37.324C95.4029 37.164 95.7069 37.084 96.0509 37.084C96.4269 37.084 96.7549 37.172 97.0349 37.348C97.3149 37.524 97.5309 37.776 97.6829 38.104C97.8349 37.808 98.0549 37.564 98.3429 37.372C98.6389 37.18 98.9749 37.084 99.3509 37.084C99.9189 37.084 100.375 37.284 100.719 37.684C101.071 38.076 101.247 38.632 101.247 39.352V42.292C101.247 42.764 101.023 43 100.575 43C100.111 43 99.8789 42.764 99.8789 42.292V39.664C99.8789 39.24 99.8029 38.908 99.6509 38.668C99.4989 38.428 99.2869 38.308 99.0149 38.308C98.6709 38.308 98.4029 38.432 98.2109 38.68C98.0269 38.928 97.9349 39.28 97.9349 39.736V42.292C97.9349 42.764 97.7109 43 97.2629 43C96.8069 43 96.5789 42.764 96.5789 42.292V39.664C96.5789 39.24 96.4989 38.908 96.3389 38.668C96.1789 38.428 95.9629 38.308 95.6909 38.308C95.3549 38.308 95.0949 38.436 94.9109 38.692C94.7269 38.94 94.6349 39.288 94.6349 39.736V42.292C94.6349 42.764 94.4109 43 93.9629 43ZM103.396 45.364C102.94 45.364 102.712 45.128 102.712 44.656V37.936C102.712 37.464 102.912 37.228 103.312 37.228C103.696 37.228 103.9 37.312 103.924 37.48L103.96 37.864C104.368 37.344 104.904 37.084 105.568 37.084C106.104 37.084 106.58 37.204 106.996 37.444C107.42 37.684 107.752 38.032 107.992 38.488C108.232 38.936 108.352 39.476 108.352 40.108C108.352 40.74 108.232 41.284 107.992 41.74C107.752 42.188 107.42 42.532 106.996 42.772C106.58 43.012 106.104 43.132 105.568 43.132C105.272 43.132 104.996 43.076 104.74 42.964C104.484 42.844 104.26 42.68 104.068 42.472V44.656C104.068 44.88 104.008 45.052 103.888 45.172C103.776 45.3 103.612 45.364 103.396 45.364ZM105.52 41.908C105.944 41.908 106.296 41.752 106.576 41.44C106.856 41.128 106.996 40.684 106.996 40.108C106.996 39.532 106.856 39.088 106.576 38.776C106.296 38.464 105.944 38.308 105.52 38.308C105.096 38.308 104.744 38.464 104.464 38.776C104.184 39.088 104.044 39.532 104.044 40.108C104.044 40.684 104.184 41.128 104.464 41.44C104.744 41.752 105.096 41.908 105.52 41.908ZM110.205 43C109.749 43 109.521 42.764 109.521 42.292V35.152C109.521 34.68 109.749 34.444 110.205 34.444C110.653 34.444 110.877 34.68 110.877 35.152V42.292C110.877 42.764 110.653 43 110.205 43ZM114.865 43.132C114.025 43.132 113.345 42.88 112.825 42.376C112.305 41.864 112.045 41.108 112.045 40.108C112.045 39.484 112.161 38.948 112.393 38.5C112.625 38.044 112.949 37.696 113.365 37.456C113.781 37.208 114.257 37.084 114.793 37.084C115.329 37.084 115.785 37.208 116.161 37.456C116.537 37.704 116.825 38.024 117.025 38.416C117.225 38.808 117.325 39.216 117.325 39.64C117.325 39.936 117.265 40.132 117.145 40.228C117.025 40.316 116.849 40.36 116.617 40.36H113.377C113.409 40.936 113.561 41.348 113.833 41.596C114.105 41.836 114.457 41.956 114.889 41.956C115.377 41.956 115.757 41.788 116.029 41.452C116.189 41.284 116.337 41.176 116.473 41.128C116.617 41.072 116.769 41.1 116.929 41.212C117.089 41.324 117.181 41.468 117.205 41.644C117.229 41.82 117.157 42.004 116.989 42.196C116.717 42.524 116.405 42.764 116.053 42.916C115.701 43.06 115.305 43.132 114.865 43.132ZM113.437 39.316H115.993C115.929 38.94 115.789 38.652 115.573 38.452C115.365 38.244 115.097 38.14 114.769 38.14C114.417 38.14 114.125 38.236 113.893 38.428C113.669 38.62 113.517 38.916 113.437 39.316ZM124.33 43.132C123.762 43.132 123.326 43.028 123.022 42.82C122.726 42.612 122.578 42.196 122.578 41.572V38.392H122.182C121.71 38.392 121.474 38.196 121.474 37.804C121.474 37.62 121.522 37.48 121.618 37.384C121.722 37.28 121.906 37.228 122.17 37.228H122.578V35.908C122.578 35.436 122.806 35.2 123.262 35.2C123.702 35.2 123.922 35.436 123.922 35.908V37.228H124.81C125.282 37.228 125.518 37.42 125.518 37.804C125.518 38.196 125.286 38.392 124.822 38.392H123.922V41.224C123.922 41.496 123.986 41.68 124.114 41.776C124.25 41.872 124.442 41.92 124.69 41.92C124.946 41.92 125.146 41.952 125.29 42.016C125.442 42.072 125.518 42.224 125.518 42.472C125.518 42.672 125.458 42.82 125.338 42.916C125.226 43.004 125.078 43.06 124.894 43.084C124.718 43.116 124.53 43.132 124.33 43.132ZM129.104 43.132C128.264 43.132 127.584 42.88 127.064 42.376C126.544 41.864 126.284 41.108 126.284 40.108C126.284 39.484 126.4 38.948 126.632 38.5C126.864 38.044 127.188 37.696 127.604 37.456C128.02 37.208 128.496 37.084 129.032 37.084C129.568 37.084 130.024 37.208 130.4 37.456C130.776 37.704 131.064 38.024 131.264 38.416C131.464 38.808 131.564 39.216 131.564 39.64C131.564 39.936 131.504 40.132 131.384 40.228C131.264 40.316 131.088 40.36 130.856 40.36H127.616C127.648 40.936 127.8 41.348 128.072 41.596C128.344 41.836 128.696 41.956 129.128 41.956C129.616 41.956 129.996 41.788 130.268 41.452C130.428 41.284 130.576 41.176 130.712 41.128C130.856 41.072 131.008 41.1 131.168 41.212C131.328 41.324 131.42 41.468 131.444 41.644C131.468 41.82 131.396 42.004 131.228 42.196C130.956 42.524 130.644 42.764 130.292 42.916C129.94 43.06 129.544 43.132 129.104 43.132ZM127.676 39.316H130.232C130.168 38.94 130.028 38.652 129.812 38.452C129.604 38.244 129.336 38.14 129.008 38.14C128.656 38.14 128.364 38.236 128.132 38.428C127.908 38.62 127.756 38.916 127.676 39.316ZM134.917 43.12C134.557 43.12 134.213 43.076 133.885 42.988C133.565 42.892 133.269 42.748 132.997 42.556C132.797 42.42 132.689 42.272 132.673 42.112C132.665 41.944 132.729 41.784 132.865 41.632C133.001 41.488 133.141 41.42 133.285 41.428C133.437 41.436 133.613 41.496 133.813 41.608C134.133 41.832 134.525 41.944 134.989 41.944C135.317 41.944 135.553 41.9 135.697 41.812C135.849 41.716 135.925 41.544 135.925 41.296C135.925 41.176 135.889 41.08 135.817 41.008C135.745 40.928 135.609 40.856 135.409 40.792C135.217 40.728 134.933 40.66 134.557 40.588C133.997 40.476 133.549 40.292 133.213 40.036C132.877 39.78 132.709 39.376 132.709 38.824C132.709 38.464 132.805 38.156 132.997 37.9C133.189 37.636 133.449 37.432 133.777 37.288C134.105 37.144 134.469 37.072 134.869 37.072C135.493 37.072 136.021 37.204 136.453 37.468C136.669 37.58 136.789 37.72 136.813 37.888C136.845 38.048 136.801 38.204 136.681 38.356C136.553 38.516 136.413 38.596 136.261 38.596C136.117 38.596 135.945 38.552 135.745 38.464C135.617 38.392 135.481 38.34 135.337 38.308C135.201 38.276 135.053 38.26 134.893 38.26C134.597 38.26 134.385 38.312 134.257 38.416C134.137 38.52 134.077 38.644 134.077 38.788C134.077 38.892 134.105 38.98 134.161 39.052C134.225 39.124 134.345 39.192 134.521 39.256C134.697 39.32 134.953 39.392 135.289 39.472C135.929 39.624 136.425 39.844 136.777 40.132C137.129 40.42 137.305 40.824 137.305 41.344C137.305 41.928 137.081 42.372 136.633 42.676C136.193 42.972 135.621 43.12 134.917 43.12ZM140.737 43.132C140.169 43.132 139.733 43.028 139.429 42.82C139.133 42.612 138.985 42.196 138.985 41.572V38.392H138.589C138.117 38.392 137.881 38.196 137.881 37.804C137.881 37.62 137.929 37.48 138.025 37.384C138.129 37.28 138.313 37.228 138.577 37.228H138.985V35.908C138.985 35.436 139.213 35.2 139.669 35.2C140.109 35.2 140.329 35.436 140.329 35.908V37.228H141.217C141.689 37.228 141.925 37.42 141.925 37.804C141.925 38.196 141.693 38.392 141.229 38.392H140.329V41.224C140.329 41.496 140.393 41.68 140.521 41.776C140.657 41.872 140.849 41.92 141.097 41.92C141.353 41.92 141.553 41.952 141.697 42.016C141.849 42.072 141.925 42.224 141.925 42.472C141.925 42.672 141.865 42.82 141.745 42.916C141.633 43.004 141.485 43.06 141.301 43.084C141.125 43.116 140.937 43.132 140.737 43.132ZM143.806 43.132C143.558 43.132 143.342 43.044 143.158 42.868C142.982 42.692 142.894 42.48 142.894 42.232C142.894 41.976 142.982 41.76 143.158 41.584C143.342 41.408 143.558 41.32 143.806 41.32C144.054 41.32 144.266 41.408 144.442 41.584C144.626 41.76 144.718 41.976 144.718 42.232C144.718 42.48 144.626 42.692 144.442 42.868C144.266 43.044 144.054 43.132 143.806 43.132Z" fill="black"/>
<path d="M31.9107 21.7827L24.3185 20.5949L24.0955 20.2052L26.3073 17.1737C26.5491 16.8512 26.146 16.448 25.8101 16.6765L22.7651 18.8977L22.4023 18.6921L21.2145 11.0865C21.1473 10.643 20.5023 10.643 20.4351 11.0865L19.5039 17.0393L14.669 14.2792L14.665 14.2779C13.5363 13.6436 12.3 14.8906 12.9289 16.0127L15.693 20.8515L9.73883 21.7827C9.29539 21.8499 9.29539 22.4949 9.73883 22.5621L17.3498 23.7527L17.5541 24.1074L15.3288 27.1577C15.087 27.4802 15.4901 27.8834 15.826 27.6549L18.8629 25.4404L19.2472 25.6595L20.4351 33.2584C20.5023 33.7018 21.1473 33.7018 21.2145 33.2584L22.1443 27.3109L26.9765 30.0656L26.9818 30.0683C28.1065 30.6972 29.3549 29.4609 28.7193 28.3295L25.966 23.492L31.9107 22.5621C32.3541 22.4949 32.3541 21.8499 31.9107 21.7827Z" fill="#005A87"/>
<path d="M34.6231 10.3912C35.1297 10.621 35.6913 10.75 36.2812 10.75C38.4984 10.75 40.3125 8.93594 40.3125 6.71875C40.3125 4.50156 38.4984 2.6875 36.2812 2.6875C34.0641 2.6875 32.25 4.50156 32.25 6.71875C32.25 7.31 32.379 7.87034 32.6088 8.37694C29.3275 5.56698 25.1482 4.02531 20.8281 4.03125C10.8091 4.03125 2.6875 12.1529 2.6875 22.1719C2.6875 32.1909 10.8091 40.3125 20.8281 40.3125C30.8471 40.3125 38.9688 32.1909 38.9688 22.1719C38.9747 17.8518 37.433 13.6725 34.6231 10.3912ZM35.8916 7.095C35.6602 6.86876 35.3531 6.73628 35.0298 6.72312C34.7064 6.70997 34.3897 6.81708 34.1407 7.02378C34.1006 6.73125 34.1208 6.4336 34.2002 6.1492C34.2796 5.86479 34.4163 5.59965 34.6021 5.37013C34.7878 5.14061 35.0186 4.95157 35.2802 4.81466C35.5419 4.67775 35.8287 4.59588 36.1232 4.57409C36.4177 4.55231 36.7135 4.59106 36.9924 4.68798C37.2713 4.78489 37.5274 4.9379 37.7449 5.13759C37.9624 5.33727 38.1367 5.57939 38.2571 5.84901C38.3774 6.11864 38.4413 6.41006 38.4447 6.70531C38.4448 7.01653 38.3778 7.32412 38.2482 7.60707C38.1186 7.89003 37.9295 8.14169 37.6938 8.34489C37.4581 8.54809 37.1813 8.69804 36.8823 8.7845C36.5833 8.87097 36.2692 8.89191 35.9614 8.84591C36.1695 8.59756 36.2775 8.28066 36.2646 7.95696C36.2517 7.63326 36.1187 7.32598 35.8916 7.095ZM34.9375 22.1719C34.9375 29.9643 28.6205 36.2812 20.8281 36.2812C13.0357 36.2812 6.71875 29.9643 6.71875 22.1719C6.71875 14.3795 13.0357 8.0625 20.8281 8.0625C28.6205 8.0625 34.9375 14.3795 34.9375 22.1719Z" fill="#005A87"/>
</svg>
