<?xml version="1.0" encoding="UTF-8"?>
<svg id="_レイヤー_1" data-name="レイヤー 1" xmlns="http://www.w3.org/2000/svg" viewBox="0 0 539.06 109.63">
  <defs>
    <style>
      .cls-1, .cls-2, .cls-3 {
        stroke: #f7f7f7;
        stroke-miterlimit: 10;
      }

      .cls-1, .cls-3 {
        stroke-width: 2px;
      }

      .cls-1, .cls-4 {
        fill: #015781;
      }

      .cls-2 {
        stroke-width: 5px;
      }

      .cls-2, .cls-3, .cls-5 {
        fill: #07557d;
      }

      .cls-6 {
        fill: #f5b227;
      }
    </style>
  </defs>
  <path class="cls-5" d="M91.53,22.75c1.39-.11,2.55-.63,3.33-1.58,2.16-2.65.39-7.66-3.97-11.2l-.1-.08c-4.33-3.46-9.54-4.15-11.68-1.52-.77.94-1.03,2.19-.86,3.55C56.41-.59,28.11,4.18,11.72,24.34c-18.22,22.41-14.83,55.35,7.58,73.57,22.41,18.22,55.35,14.83,73.57-7.58,16.37-20.13,15.29-48.76-1.34-67.58Z"/>
  <path class="cls-3" d="M87.93,86.47c-16.04,19.72-45.03,22.71-64.75,6.67C3.46,77.1.47,48.11,16.51,28.39c16.04-19.72,45.02-22.7,64.75-6.67l.04.04c19.68,16.04,22.66,45,6.63,64.71Z"/>
  <circle class="cls-2" cx="52.64" cy="57.78" r="31.51"/>
  <path class="cls-5" d="M98.09,1.54c-2.94-2.39-7.27-1.94-9.66,1-2.39,2.94-1.94,7.27.99,9.66l.1.08c2.94,2.31,7.2,1.84,9.56-1.07,2.39-2.94,1.95-7.27-1-9.67ZM91.7,9.49c-1.38-1.13-1.59-3.16-.47-4.55s3.16-1.59,4.55-.47,1.59,3.16.47,4.55-3.16,1.59-4.55.47Z"/>
  <g>
    <polygon class="cls-1" points="48.46 16.83 48.42 54.07 11.96 61.61 49.38 61.43 56.75 98.11 56.54 60.67 93.25 53.32 55.83 53.5 48.46 16.83"/>
    <polygon class="cls-1" points="78.41 26.07 51.27 49.59 20.91 31.7 44.21 58.67 26.54 89.19 53.26 66.18 84.04 83.56 60.4 56.46 78.41 26.07"/>
  </g>
  <g>
    <path class="cls-6" d="M148.56,91.05c-5.47,0-10.36-1.3-14.68-3.89-4.32-2.59-7.7-6.26-10.15-11.01-2.45-4.75-3.67-10.35-3.67-16.8s1.22-12.13,3.67-16.88c2.45-4.75,5.83-8.43,10.15-11.05,4.32-2.62,9.21-3.93,14.68-3.93s10.35,1.31,14.64,3.93c4.29,2.62,7.66,6.3,10.1,11.05,2.45,4.75,3.67,10.38,3.67,16.88,0,5.93-1.07,11.2-3.2,15.8l4.32,3.28c2.99,2.3,3.34,4.95,1.04,7.94-2.42,3.11-5.04,3.57-7.86,1.38l-4.32-3.28c-2.42,2.13-5.18,3.76-8.29,4.88-3.11,1.12-6.48,1.68-10.1,1.68ZM148.56,80.17c3.45,0,6.5-.95,9.15-2.85l-3.2-2.42c-2.99-2.36-3.34-5.01-1.04-7.94,2.24-2.99,4.6-3.57,7.08-1.73l3.54,2.76c.81-2.71,1.21-5.58,1.21-8.64,0-4.2-.68-7.86-2.03-10.97-1.35-3.11-3.28-5.54-5.79-7.3-2.5-1.76-5.48-2.63-8.94-2.63s-6.35.88-8.85,2.63c-2.5,1.76-4.45,4.19-5.83,7.3-1.38,3.11-2.07,6.77-2.07,10.97s.69,7.77,2.07,10.88c1.38,3.11,3.32,5.54,5.83,7.3,2.5,1.76,5.45,2.63,8.85,2.63Z"/>
    <path class="cls-4" d="M191.3,89.58c-3.8,0-5.7-1.9-5.7-5.7v-49.05c0-3.8,1.87-5.7,5.61-5.7s5.61,1.9,5.61,5.7v44.39h25.3c3.8,0,5.7,1.73,5.7,5.18s-1.9,5.18-5.7,5.18h-30.83Z"/>
    <path class="cls-4" d="M239.49,89.58c-3.74,0-5.61-1.9-5.61-5.7v-49.05c0-3.8,1.87-5.7,5.61-5.7s5.61,1.9,5.61,5.7v49.05c0,3.8-1.87,5.7-5.61,5.7Z"/>
    <path class="cls-4" d="M262.98,89.58c-3.74,0-5.61-1.9-5.61-5.7v-49.05c0-3.8,1.9-5.7,5.7-5.7h22.28c3.8,0,7.09.58,9.89,1.73,2.79,1.15,4.95,3.02,6.48,5.61,1.52,2.59,2.29,6.07,2.29,10.45s-.76,7.87-2.29,10.49c-1.53,2.62-3.68,4.52-6.48,5.7-2.79,1.18-6.09,1.77-9.89,1.77h-16.75v19c0,3.8-1.87,5.7-5.61,5.7ZM268.59,54.44h15.2c2.59,0,4.63-.57,6.13-1.73,1.5-1.15,2.25-3.08,2.25-5.79s-.75-4.55-2.25-5.7c-1.5-1.15-3.54-1.73-6.13-1.73h-15.2v14.94Z"/>
  </g>
  <g>
    <path class="cls-4" d="M334.75,89.11c-3.65,0-6.91-.86-9.79-2.59-2.88-1.73-5.13-4.17-6.77-7.34-1.63-3.17-2.45-6.9-2.45-11.2s.82-8.09,2.45-11.26,3.89-5.62,6.77-7.37c2.88-1.75,6.14-2.62,9.79-2.62,2.73,0,5.22.48,7.48,1.44,2.26.96,4.24,2.32,5.93,4.09.88.96,1.17,1.92.86,2.88-.31.96-.9,1.71-1.78,2.25l-.29.17c-.58.34-1.37.48-2.39.4-1.02-.08-1.97-.52-2.85-1.32-1.92-1.73-4.24-2.59-6.97-2.59-2.26,0-4.23.59-5.9,1.76-1.67,1.17-2.96,2.79-3.89,4.86-.92,2.07-1.38,4.51-1.38,7.31s.46,5.18,1.38,7.25c.92,2.07,2.22,3.69,3.89,4.86,1.67,1.17,3.64,1.76,5.9,1.76,2.73,0,5.05-.86,6.97-2.59.88-.81,1.77-1.28,2.68-1.41.9-.13,1.76,0,2.56.43l.11.06c.88.46,1.52,1.2,1.9,2.22.38,1.02.15,1.99-.69,2.91-1.69,1.8-3.68,3.2-5.99,4.17-2.3.98-4.82,1.47-7.54,1.47Z"/>
    <path class="cls-4" d="M366.98,88.77c-2.57,0-4.88-.59-6.94-1.78-2.05-1.19-3.67-2.88-4.84-5.07-1.17-2.19-1.76-4.74-1.76-7.66s.58-5.52,1.76-7.69c1.17-2.17,2.78-3.86,4.84-5.07,2.05-1.21,4.37-1.81,6.94-1.81s4.93.6,6.97,1.81c2.03,1.21,3.64,2.9,4.81,5.07,1.17,2.17,1.76,4.73,1.76,7.69s-.59,5.47-1.76,7.66c-1.17,2.19-2.77,3.88-4.81,5.07-2.03,1.19-4.36,1.78-6.97,1.78ZM366.98,82.2c1.84,0,3.35-.68,4.52-2.04,1.17-1.36,1.76-3.33,1.76-5.9s-.59-4.6-1.76-5.96c-1.17-1.36-2.68-2.04-4.52-2.04s-3.33.68-4.46,2.04c-1.13,1.36-1.7,3.35-1.7,5.96s.57,4.54,1.7,5.9c1.13,1.36,2.62,2.04,4.46,2.04Z"/>
    <path class="cls-4" d="M388.92,88.13c-2.42,0-3.63-1.27-3.63-3.8v-20.15c0-2.53,1.07-3.8,3.22-3.8s3.3.52,3.45,1.55l.23,1.55c.54-1.11,1.41-2.02,2.62-2.73,1.21-.71,2.62-1.06,4.23-1.06,1.73,0,3.25.41,4.58,1.24,1.32.83,2.37,1.97,3.14,3.43.77-1.34,1.84-2.46,3.22-3.34,1.38-.88,2.92-1.32,4.61-1.32,2.69,0,4.87.97,6.56,2.91,1.69,1.94,2.53,4.62,2.53,8.03v13.7c0,2.53-1.21,3.8-3.63,3.8s-3.68-1.27-3.68-3.8v-11.92c0-1.8-.33-3.28-.98-4.43-.65-1.15-1.56-1.73-2.71-1.73-1.46,0-2.59.55-3.4,1.64-.81,1.09-1.21,2.73-1.21,4.92v11.51c0,2.53-1.21,3.8-3.63,3.8s-3.63-1.27-3.63-3.8v-11.92c0-1.8-.35-3.28-1.04-4.43-.69-1.15-1.61-1.73-2.76-1.73-2.99,0-4.49,2.19-4.49,6.56v11.51c0,2.53-1.21,3.8-3.63,3.8Z"/>
    <path class="cls-4" d="M432.9,99.3c-2.42,0-3.63-1.27-3.63-3.8v-31.32c0-2.53,1.05-3.8,3.17-3.8s3.17.42,3.28,1.27l.17,1.32c1.96-2.19,4.38-3.28,7.25-3.28,2.61,0,4.93.57,6.97,1.7,2.03,1.13,3.64,2.78,4.81,4.95,1.17,2.17,1.76,4.81,1.76,7.92s-.59,5.69-1.76,7.86c-1.17,2.17-2.77,3.82-4.81,4.95-2.03,1.13-4.36,1.7-6.97,1.7s-4.7-.86-6.62-2.59v9.33c0,2.53-1.21,3.8-3.63,3.8ZM442.86,82.2c1.84,0,3.39-.68,4.63-2.04,1.25-1.36,1.87-3.33,1.87-5.9s-.62-4.6-1.87-5.96c-1.25-1.36-2.79-2.04-4.63-2.04s-3.38.68-4.61,2.04c-1.23,1.36-1.84,3.35-1.84,5.96s.61,4.54,1.84,5.9c1.23,1.36,2.76,2.04,4.61,2.04Z"/>
    <path class="cls-4" d="M470.55,88.48c-3.03.15-5.56-.5-7.57-1.96-2.01-1.46-3.02-3.57-3.02-6.33,0-1.96.58-3.64,1.76-5.04,1.17-1.4,2.69-2.49,4.55-3.28,1.86-.79,3.79-1.2,5.79-1.24.88-.08,1.73,0,2.53.2.81.21,1.55.49,2.24.83v-1.84c0-1.61-.34-2.66-1.04-3.14-.69-.48-1.67-.72-2.94-.72-1.04,0-2.1.12-3.2.37-1.09.25-2.16.59-3.2,1.01-1.11.46-2.06.62-2.85.49-.79-.13-1.45-.64-1.99-1.53-.5-.88-.61-1.74-.35-2.56.27-.82.98-1.49,2.13-1.99,1.38-.61,2.87-1.11,4.46-1.5,1.59-.38,3.25-.58,4.98-.58,3.57,0,6.28.73,8.12,2.19,1.84,1.46,2.76,4.11,2.76,7.94v12.09c0,.38.02.65.06.81.11.54.33.89.66,1.07.33.17.66.29,1.01.35s.64.13.89.23c.25.1.37.34.37.72,0,.73-.2,1.38-.6,1.96-.4.58-1.07.96-1.99,1.15-.42.08-.86.14-1.32.2-.46.06-.94.09-1.44.09-2.26,0-3.7-.77-4.32-2.3-1.77,1.34-3.93,2.11-6.51,2.3ZM470.38,82.26c2.03-.12,3.66-.51,4.87-1.18,1.21-.67,1.77-1.6,1.7-2.79-.04-.88-.47-1.46-1.3-1.73-.83-.27-1.83-.36-3.02-.29-1.77.08-3.17.53-4.2,1.35-1.04.83-1.54,1.7-1.5,2.62.04.65.34,1.16.89,1.53.56.37,1.41.53,2.56.49Z"/>
    <path class="cls-4" d="M501.35,88.71c-1.61,0-3.18-.18-4.69-.55-1.52-.36-2.95-.97-4.29-1.81-1.08-.69-1.65-1.49-1.73-2.39-.08-.9.25-1.76.98-2.56.73-.77,1.49-1.14,2.27-1.12.79.02,1.72.34,2.79.95,1.5.81,3.19,1.21,5.07,1.21,1.46,0,2.48-.18,3.05-.55.58-.36.86-1.05.86-2.04,0-.42-.14-.8-.43-1.12-.29-.33-.88-.63-1.78-.92-.9-.29-2.25-.6-4.06-.95-2.8-.54-4.96-1.46-6.48-2.76-1.52-1.3-2.27-3.26-2.27-5.87,0-1.73.46-3.23,1.38-4.52.92-1.29,2.18-2.28,3.77-2.99,1.59-.71,3.39-1.06,5.38-1.06,2.72,0,5.18.5,7.37,1.5,1.15.58,1.81,1.31,1.99,2.19.17.88-.07,1.75-.72,2.59-.65.84-1.37,1.28-2.16,1.29-.79.02-1.74-.18-2.85-.6-.58-.23-1.15-.39-1.73-.49-.58-.1-1.17-.14-1.78-.14-1.27,0-2.13.2-2.59.6-.46.4-.69.87-.69,1.41,0,.38.11.73.35,1.04.23.31.73.6,1.5.89.77.29,1.96.62,3.57,1.01,3.18.73,5.59,1.83,7.22,3.31s2.45,3.44,2.45,5.9c0,2.88-1.1,5.03-3.31,6.45-2.21,1.42-5.02,2.13-8.43,2.13Z"/>
    <path class="cls-4" d="M527.31,88.71c-1.61,0-3.18-.18-4.69-.55-1.52-.36-2.95-.97-4.29-1.81-1.08-.69-1.65-1.49-1.73-2.39-.08-.9.25-1.76.98-2.56.73-.77,1.49-1.14,2.27-1.12.79.02,1.72.34,2.79.95,1.5.81,3.19,1.21,5.07,1.21,1.46,0,2.48-.18,3.05-.55.58-.36.86-1.05.86-2.04,0-.42-.14-.8-.43-1.12-.29-.33-.88-.63-1.78-.92-.9-.29-2.25-.6-4.06-.95-2.8-.54-4.96-1.46-6.48-2.76-1.52-1.3-2.27-3.26-2.27-5.87,0-1.73.46-3.23,1.38-4.52.92-1.29,2.18-2.28,3.77-2.99,1.59-.71,3.39-1.06,5.38-1.06,2.72,0,5.18.5,7.37,1.5,1.15.58,1.81,1.31,1.99,2.19.17.88-.07,1.75-.72,2.59-.65.84-1.37,1.28-2.16,1.29-.79.02-1.74-.18-2.85-.6-.58-.23-1.15-.39-1.73-.49-.58-.1-1.17-.14-1.78-.14-1.27,0-2.13.2-2.59.6-.46.4-.69.87-.69,1.41,0,.38.11.73.35,1.04.23.31.73.6,1.5.89.77.29,1.96.62,3.57,1.01,3.18.73,5.59,1.83,7.22,3.31s2.45,3.44,2.45,5.9c0,2.88-1.1,5.03-3.31,6.45-2.21,1.42-5.02,2.13-8.43,2.13Z"/>
  </g>
</svg>