<?xml version="1.0" encoding="UTF-8"?>
<svg id="_レイヤー_1" data-name="レイヤー 1" xmlns="http://www.w3.org/2000/svg" viewBox="0 0 964.55 312.2">
  <defs>
    <style>
      .cls-1 {
        font-size: 155px;
      }

      .cls-1, .cls-2 {
        font-family: ZenMaruGothic-Black, 'Zen Maru Gothic';
        font-weight: 800;
      }

      .cls-3 {
        stroke-width: 2px;
      }

      .cls-3, .cls-4, .cls-5, .cls-6, .cls-7, .cls-2, .cls-8 {
        fill: #015781;
      }

      .cls-3, .cls-7, .cls-8 {
        stroke: #f7f7f7;
        stroke-miterlimit: 10;
      }

      .cls-4 {
        letter-spacing: 0em;
      }

      .cls-9 {
        fill: #ffb71d;
      }

      .cls-5 {
        letter-spacing: .04em;
      }

      .cls-7 {
        stroke-width: 4px;
      }

      .cls-2 {
        font-size: 107px;
      }

      .cls-8 {
        stroke-width: 5px;
      }
    </style>
  </defs>
  <text class="cls-1" transform="translate(174.91 139.17)"><tspan class="cls-9" x="0" y="0">Q</tspan><tspan class="cls-4" x="112.53" y="0">L</tspan><tspan class="cls-5" x="202.27" y="0">I</tspan><tspan class="cls-6" x="249.86" y="0">P</tspan></text>
  <text class="cls-2" transform="translate(534.74 139.17)"><tspan x="0" y="0">Compass</tspan></text>
  <path class="cls-6" d="M134.88,33.52c2.05-.16,3.76-.92,4.9-2.32,3.18-3.91.57-11.29-5.85-16.51l-.14-.12c-6.38-5.1-14.06-6.12-17.21-2.24-1.13,1.39-1.52,3.22-1.27,5.23C83.13-.87,41.43,6.16,17.27,35.87c-26.85,33.02-21.85,81.56,11.17,108.41,33.02,26.85,81.56,21.85,108.41-11.17,24.12-29.66,22.54-71.85-1.98-99.58Z"/>
  <path class="cls-3" d="M129.57,127.42c-23.63,29.06-66.36,33.46-95.42,9.83S.69,70.9,24.32,41.83c23.63-29.06,66.35-33.46,95.41-9.82l.06.05c29,23.64,33.39,66.32,9.77,95.36Z"/>
  <circle class="cls-8" cx="77.57" cy="85.14" r="46.43"/>
  <path class="cls-6" d="M144.54,2.26c-4.33-3.52-10.71-2.86-14.24,1.47s-2.86,10.71,1.47,14.23l.14.12c4.33,3.4,10.61,2.71,14.09-1.58,3.53-4.34,2.87-10.72-1.47-14.24ZM135.13,13.99c-2.04-1.66-2.35-4.66-.69-6.7s4.66-2.35,6.7-.69,2.35,4.66.69,6.7-4.66,2.35-6.7.69Z"/>
  <g>
    <polygon class="cls-7" points="71.09 21.7 71.04 79.41 14.54 91.11 72.52 90.83 83.94 147.66 83.62 89.65 140.5 78.26 82.51 78.54 71.09 21.7"/>
    <polygon class="cls-7" points="117.51 36.02 75.44 72.48 28.41 44.75 64.52 86.54 37.13 133.85 78.54 98.19 126.23 125.13 89.6 83.13 117.51 36.02"/>
  </g>
</svg>