<?xml version="1.0" encoding="UTF-8"?>
<svg id="_レイヤー_1" xmlns="http://www.w3.org/2000/svg" version="1.1" viewBox="0 0 539.06 111.42">
  <!-- Generator: Adobe Illustrator 29.8.3, SVG Export Plug-In . SVG Version: 2.1.1 Build 3)  -->
  <defs>
    <style>
      .st0 {
        stroke-width: 3px;
      }

      .st0, .st1, .st2, .st3 {
        stroke-miterlimit: 10;
      }

      .st0, .st2 {
        stroke: #414141;
      }

      .st0, .st4, .st3 {
        fill: #fff;
      }

      .st1 {
        fill: #f5b227;
        stroke: #f7f7f7;
      }

      .st2 {
        fill: #414141;
        stroke-width: 2px;
      }

      .st3 {
        stroke: #fff;
      }
    </style>
  </defs>
  <g>
    <path class="st4" d="M334.75,90.9c-3.65,0-6.91-.86-9.79-2.59-2.88-1.73-5.13-4.17-6.77-7.34-1.63-3.17-2.45-6.9-2.45-11.2s.82-8.09,2.45-11.26,3.89-5.62,6.77-7.37c2.88-1.75,6.14-2.62,9.79-2.62,2.73,0,5.22.48,7.48,1.44s4.24,2.32,5.93,4.09c.88.96,1.17,1.92.86,2.88-.31.96-.9,1.71-1.78,2.25l-.29.17c-.58.34-1.37.48-2.39.4-1.02-.08-1.97-.52-2.85-1.32-1.92-1.73-4.24-2.59-6.97-2.59-2.26,0-4.23.59-5.9,1.76-1.67,1.17-2.96,2.79-3.89,4.86-.92,2.07-1.38,4.51-1.38,7.31s.46,5.18,1.38,7.25,2.22,3.69,3.89,4.86,3.64,1.76,5.9,1.76c2.73,0,5.05-.86,6.97-2.59.88-.81,1.77-1.28,2.68-1.41.9-.13,1.76,0,2.56.43l.11.06c.88.46,1.52,1.2,1.9,2.22.38,1.02.15,1.99-.69,2.91-1.69,1.8-3.68,3.2-5.99,4.17-2.3.98-4.82,1.47-7.54,1.47h.01Z"/>
    <path class="st4" d="M366.98,90.56c-2.57,0-4.88-.59-6.94-1.78-2.05-1.19-3.67-2.88-4.84-5.07-1.17-2.19-1.76-4.74-1.76-7.66s.58-5.52,1.76-7.69c1.17-2.17,2.78-3.86,4.84-5.07,2.05-1.21,4.37-1.81,6.94-1.81s4.93.6,6.97,1.81c2.03,1.21,3.64,2.9,4.81,5.07,1.17,2.17,1.76,4.73,1.76,7.69s-.59,5.47-1.76,7.66-2.77,3.88-4.81,5.07c-2.03,1.19-4.36,1.78-6.97,1.78ZM366.98,84c1.84,0,3.35-.68,4.52-2.04,1.17-1.36,1.76-3.33,1.76-5.9s-.59-4.6-1.76-5.96-2.68-2.04-4.52-2.04-3.33.68-4.46,2.04-1.7,3.35-1.7,5.96.57,4.54,1.7,5.9,2.62,2.04,4.46,2.04Z"/>
    <path class="st4" d="M388.92,89.92c-2.42,0-3.63-1.27-3.63-3.8v-20.15c0-2.53,1.07-3.8,3.22-3.8s3.3.52,3.45,1.55l.23,1.55c.54-1.11,1.41-2.02,2.62-2.73s2.62-1.06,4.23-1.06c1.73,0,3.25.41,4.58,1.24,1.32.83,2.37,1.97,3.14,3.43.77-1.34,1.84-2.46,3.22-3.34s2.92-1.32,4.61-1.32c2.69,0,4.87.97,6.56,2.91,1.69,1.94,2.53,4.62,2.53,8.03v13.7c0,2.53-1.21,3.8-3.63,3.8s-3.68-1.27-3.68-3.8v-11.92c0-1.8-.33-3.28-.98-4.43-.65-1.15-1.56-1.73-2.71-1.73-1.46,0-2.59.55-3.4,1.64s-1.21,2.73-1.21,4.92v11.51c0,2.53-1.21,3.8-3.63,3.8s-3.63-1.27-3.63-3.8v-11.92c0-1.8-.35-3.28-1.04-4.43s-1.61-1.73-2.76-1.73c-2.99,0-4.49,2.19-4.49,6.56v11.51c0,2.53-1.21,3.8-3.63,3.8h.03Z"/>
    <path class="st4" d="M432.9,101.09c-2.42,0-3.63-1.27-3.63-3.8v-31.32c0-2.53,1.05-3.8,3.17-3.8s3.17.42,3.28,1.27l.17,1.32c1.96-2.19,4.38-3.28,7.25-3.28,2.61,0,4.93.57,6.97,1.7,2.03,1.13,3.64,2.78,4.81,4.95,1.17,2.17,1.76,4.81,1.76,7.92s-.59,5.69-1.76,7.86-2.77,3.82-4.81,4.95c-2.03,1.13-4.36,1.7-6.97,1.7s-4.7-.86-6.62-2.59v9.33c0,2.53-1.21,3.8-3.63,3.8h0ZM442.86,84c1.84,0,3.39-.68,4.63-2.04,1.25-1.36,1.87-3.33,1.87-5.9s-.62-4.6-1.87-5.96-2.79-2.04-4.63-2.04-3.38.68-4.61,2.04c-1.23,1.36-1.84,3.35-1.84,5.96s.61,4.54,1.84,5.9,2.76,2.04,4.61,2.04Z"/>
    <path class="st4" d="M470.55,90.27c-3.03.15-5.56-.5-7.57-1.96s-3.02-3.57-3.02-6.33c0-1.96.58-3.64,1.76-5.04,1.17-1.4,2.69-2.49,4.55-3.28s3.79-1.2,5.79-1.24c.88-.08,1.73,0,2.53.2.81.21,1.55.49,2.24.83v-1.84c0-1.61-.34-2.66-1.04-3.14-.69-.48-1.67-.72-2.94-.72-1.04,0-2.1.12-3.2.37-1.09.25-2.16.59-3.2,1.01-1.11.46-2.06.62-2.85.49-.79-.13-1.45-.64-1.99-1.53-.5-.88-.61-1.74-.35-2.56.27-.82.98-1.49,2.13-1.99,1.38-.61,2.87-1.11,4.46-1.5,1.59-.38,3.25-.58,4.98-.58,3.57,0,6.28.73,8.12,2.19s2.76,4.11,2.76,7.94v12.09c0,.38.02.65.06.81.11.54.33.89.66,1.07.33.17.66.29,1.01.35s.64.13.89.23c.25.1.37.34.37.72,0,.73-.2,1.38-.6,1.96s-1.07.96-1.99,1.15c-.42.08-.86.14-1.32.2-.46.06-.94.09-1.44.09-2.26,0-3.7-.77-4.32-2.3-1.77,1.34-3.93,2.11-6.51,2.3h.03ZM470.38,84.05c2.03-.12,3.66-.51,4.87-1.18s1.77-1.6,1.7-2.79c-.04-.88-.47-1.46-1.3-1.73-.83-.27-1.83-.36-3.02-.29-1.77.08-3.17.53-4.2,1.35-1.04.83-1.54,1.7-1.5,2.62.04.65.34,1.16.89,1.53.56.37,1.41.53,2.56.49h0Z"/>
    <path class="st4" d="M501.35,90.5c-1.61,0-3.18-.18-4.69-.55-1.52-.36-2.95-.97-4.29-1.81-1.08-.69-1.65-1.49-1.73-2.39-.08-.9.25-1.76.98-2.56.73-.77,1.49-1.14,2.27-1.12.79.02,1.72.34,2.79.95,1.5.81,3.19,1.21,5.07,1.21,1.46,0,2.48-.18,3.05-.55.58-.36.86-1.05.86-2.04,0-.42-.14-.8-.43-1.12-.29-.33-.88-.63-1.78-.92s-2.25-.6-4.06-.95c-2.8-.54-4.96-1.46-6.48-2.76-1.52-1.3-2.27-3.26-2.27-5.87,0-1.73.46-3.23,1.38-4.52.92-1.29,2.18-2.28,3.77-2.99,1.59-.71,3.39-1.06,5.38-1.06,2.72,0,5.18.5,7.37,1.5,1.15.58,1.81,1.31,1.99,2.19.17.88-.07,1.75-.72,2.59s-1.37,1.28-2.16,1.29c-.79.02-1.74-.18-2.85-.6-.58-.23-1.15-.39-1.73-.49-.58-.1-1.17-.14-1.78-.14-1.27,0-2.13.2-2.59.6s-.69.87-.69,1.41c0,.38.11.73.35,1.04.23.31.73.6,1.5.89s1.96.62,3.57,1.01c3.18.73,5.59,1.83,7.22,3.31s2.45,3.44,2.45,5.9c0,2.88-1.1,5.03-3.31,6.45s-5.02,2.13-8.43,2.13v-.03h0Z"/>
    <path class="st4" d="M527.31,90.5c-1.61,0-3.18-.18-4.69-.55-1.52-.36-2.95-.97-4.29-1.81-1.08-.69-1.65-1.49-1.73-2.39-.08-.9.25-1.76.98-2.56.73-.77,1.49-1.14,2.27-1.12.79.02,1.72.34,2.79.95,1.5.81,3.19,1.21,5.07,1.21,1.46,0,2.48-.18,3.05-.55.58-.36.86-1.05.86-2.04,0-.42-.14-.8-.43-1.12-.29-.33-.88-.63-1.78-.92s-2.25-.6-4.06-.95c-2.8-.54-4.96-1.46-6.48-2.76-1.52-1.3-2.27-3.26-2.27-5.87,0-1.73.46-3.23,1.38-4.52.92-1.29,2.18-2.28,3.77-2.99,1.59-.71,3.39-1.06,5.38-1.06,2.72,0,5.18.5,7.37,1.5,1.15.58,1.81,1.31,1.99,2.19.17.88-.07,1.75-.72,2.59-.65.84-1.37,1.28-2.16,1.29-.79.02-1.74-.18-2.85-.6-.58-.23-1.15-.39-1.73-.49-.58-.1-1.17-.14-1.78-.14-1.27,0-2.13.2-2.59.6s-.69.87-.69,1.41c0,.38.11.73.35,1.04.23.31.73.6,1.5.89s1.96.62,3.57,1.01c3.18.73,5.59,1.83,7.22,3.31s2.45,3.44,2.45,5.9c0,2.88-1.1,5.03-3.31,6.45s-5.02,2.13-8.43,2.13v-.03s-.01,0-.01,0Z"/>
  </g>
  <g>
    <path class="st4" d="M146.32,91.41c-5.51,0-10.44-1.31-14.79-3.92-4.35-2.61-7.76-6.31-10.22-11.09-2.47-4.79-3.7-10.42-3.7-16.92s1.23-12.22,3.7-17.01c2.46-4.79,5.87-8.5,10.22-11.14,4.35-2.64,9.28-3.96,14.79-3.96s10.42,1.32,14.75,3.96c4.32,2.64,7.71,6.35,10.18,11.14,2.46,4.79,3.7,10.46,3.7,17.01,0,5.97-1.07,11.28-3.22,15.92l4.35,3.31c3.01,2.32,3.36,4.99,1.04,8-2.44,3.13-5.08,3.6-7.92,1.39l-4.35-3.31c-2.44,2.15-5.22,3.78-8.35,4.92-3.13,1.13-6.52,1.7-10.18,1.7h0ZM146.32,80.45c3.48,0,6.55-.96,9.22-2.87l-3.22-2.44c-3.02-2.38-3.36-5.05-1.04-8,2.26-3.01,4.64-3.6,7.13-1.74l3.57,2.78c.81-2.73,1.22-5.62,1.22-8.7,0-4.23-.68-7.92-2.04-11.05-1.36-3.13-3.31-5.58-5.83-7.35-2.52-1.77-5.53-2.65-9-2.65s-6.39.88-8.92,2.65c-2.52,1.77-4.48,4.22-5.87,7.35s-2.09,6.82-2.09,11.05.7,7.83,2.09,10.96c1.39,3.13,3.35,5.58,5.87,7.35,2.52,1.77,5.5,2.65,8.92,2.65h-.01Z"/>
    <path class="st4" d="M189.47,89.93c-3.83,0-5.74-1.91-5.74-5.74v-49.42c0-3.83,1.88-5.74,5.66-5.74s5.65,1.91,5.65,5.74v44.72h25.49c3.83,0,5.74,1.74,5.74,5.22s-1.91,5.22-5.74,5.22c0,0-31.06,0-31.06,0Z"/>
    <path class="st4" d="M241.58,41.73c-1.86,0-3.44-.67-4.74-2-1.31-1.33-1.96-2.93-1.96-4.78s.65-3.44,1.96-4.74c1.3-1.3,2.88-1.96,4.74-1.96s3.44.65,4.74,1.96,1.96,2.89,1.96,4.74-.65,3.45-1.96,4.78c-1.3,1.33-2.89,2-4.74,2ZM241.67,89.93c-3.65,0-5.48-1.91-5.48-5.74v-30.45c0-3.83,1.83-5.74,5.48-5.74s5.48,1.91,5.48,5.74v30.45c0,3.83-1.83,5.74-5.48,5.74Z"/>
    <path class="st4" d="M264.55,89.93c-3.77,0-5.66-1.91-5.66-5.74v-49.42c0-3.83,1.91-5.74,5.74-5.74h22.45c3.83,0,7.15.58,9.96,1.74s4.99,3.04,6.53,5.66c1.54,2.61,2.3,6.12,2.3,10.53s-.77,7.93-2.3,10.57c-1.54,2.64-3.71,4.55-6.53,5.74-2.81,1.19-6.13,1.78-9.96,1.78h-16.88v19.14c0,3.83-1.88,5.74-5.65,5.74ZM270.2,54.52h15.31c2.61,0,4.67-.58,6.18-1.74,1.51-1.16,2.26-3.1,2.26-5.83s-.75-4.58-2.26-5.74c-1.51-1.16-3.57-1.74-6.18-1.74h-15.31v15.05Z"/>
  </g>
  <path class="st4" d="M91.46,24.54c1.39-.11,2.55-.63,3.33-1.58,2.16-2.65.39-7.66-3.97-11.2l-.1-.08c-4.33-3.46-9.54-4.15-11.68-1.52-.77.94-1.03,2.19-.86,3.55C56.34,1.2,28.04,5.97,11.65,26.13c-18.22,22.41-14.83,55.35,7.58,73.57s55.35,14.83,73.57-7.58c16.37-20.13,15.29-48.76-1.34-67.58Z"/>
  <path class="st0" d="M87.86,88.26c-16.04,19.72-45.03,22.71-64.75,6.67C3.39,78.89.4,49.9,16.44,30.18c16.04-19.72,45.02-22.7,64.75-6.67l.04.04c19.68,16.04,22.66,45,6.63,64.71Z"/>
  <circle class="st0" cx="52.57" cy="59.57" r="31.51"/>
  <path class="st4" d="M99.14,1.94c-3.71-3.01-9.16-2.45-12.18,1.26-3.02,3.71-2.45,9.16,1.25,12.17l.12.1c3.71,2.91,9.07,2.32,12.06-1.35,3.02-3.71,2.46-9.17-1.26-12.19h.01ZM91.1,11.97c-1.75-1.42-2.01-3.99-.59-5.73,1.42-1.75,3.99-2.01,5.73-.59s2.01,3.99.59,5.73-3.99,2.01-5.73.59Z"/>
  <polygon class="st2" points="48 18.93 47.96 56.16 11.51 63.71 48.92 63.53 56.29 100.21 56.08 62.77 92.79 55.42 55.37 55.6 48 18.93"/>
  <polygon class="st1" points="78.51 27.56 51.37 51.08 21.01 33.19 44.32 60.16 26.64 90.69 53.37 67.67 84.13 85.06 60.5 57.96 78.51 27.56"/>
  <polygon class="st3" points="324.02 20.24 328.75 16.81 326.94 22.36 331.67 25.8 325.83 25.8 324.02 31.36 322.21 25.8 316.37 25.8 321.1 22.36 319.29 16.81 324.02 20.24"/>
  <polygon class="st3" points="414.9 40.92 417.28 35.58 418.5 41.3 424.31 41.91 419.25 44.83 420.46 50.55 416.12 46.64 411.06 49.56 413.44 44.22 409.09 40.31 414.9 40.92"/>
  <polygon class="st3" points="358.68 39.23 361.69 37.04 360.54 40.59 363.55 42.78 359.83 42.78 358.68 46.32 357.52 42.78 353.8 42.78 356.81 40.59 355.66 37.04 358.68 39.23"/>
  <polygon class="st3" points="382.25 24.96 384.52 23.31 383.65 25.98 385.92 27.62 383.12 27.62 382.25 30.29 381.39 27.62 378.59 27.62 380.85 25.98 379.99 23.31 382.25 24.96"/>
  <polygon class="st3" points="435.67 12.72 435.28 9.01 437.77 11.78 441.18 10.26 439.31 13.49 441.81 16.26 438.16 15.48 436.3 18.71 435.91 15.01 432.27 14.23 435.67 12.72"/>
  <polygon class="st3" points="470.01 43.61 472.37 41.89 471.47 44.67 473.83 46.38 470.91 46.38 470.01 49.15 469.11 46.38 466.2 46.38 468.56 44.67 467.66 41.89 470.01 43.61"/>
  <polygon class="st3" points="487.89 26.49 489.14 29.2 486.54 27.74 484.35 29.77 484.93 26.85 482.33 25.39 485.29 25.04 485.87 22.12 487.12 24.82 490.07 24.47 487.89 26.49"/>
  <polygon class="st3" points="525.69 40.65 530.99 43.32 525.13 44.28 524.23 50.15 521.51 44.87 515.65 45.82 519.83 41.6 517.1 36.32 522.41 39 526.59 34.78 525.69 40.65"/>
</svg>