<svg width="639" height="639" viewBox="0 0 639 639" fill="none" xmlns="http://www.w3.org/2000/svg">
<mask id="mask0_1575_3672" style="mask-type:luminance" maskUnits="userSpaceOnUse" x="0" y="0" width="639" height="639">
<path d="M0 149.184L489.784 0.000193918L638.967 489.784L149.183 638.968L0 149.184Z" fill="white"/>
</mask>
<g mask="url(#mask0_1575_3672)">
<path d="M103.671 117.605L125.752 110.88L132.397 132.696L152.6 126.542L145.956 104.726L168.037 98.0003L188.152 164.039L166.07 170.765L159.339 148.664L139.135 154.817L145.867 176.919L123.806 183.638L103.671 117.605ZM203.726 111.059L184.298 116.976L177.628 95.0788L238.586 76.5117L245.256 98.4091L225.807 104.333L239.252 148.475L217.171 155.2L203.726 111.059ZM248.259 73.5653L271.279 66.5537L292.51 85.4433L299.584 57.9321L322.604 50.9205L342.719 116.96L320.74 123.654L310.77 90.9204L302.741 119.034L302.353 119.152L280.001 100.315L289.965 133.028L268.374 139.604L248.259 73.5653ZM333.584 47.5763L355.685 40.8444L369.155 85.0678L400.175 75.6195L406.826 97.4557L353.705 113.636L333.584 47.5763Z" fill="white" fill-opacity="0.5"/>
<path fill-rule="evenodd" clip-rule="evenodd" d="M240.175 568.254L90.543 226.797L457.881 114.909L523.972 481.768L393.871 564.436L240.175 568.254ZM265.55 348.666L248.04 305.383L414.261 254.754L404.91 210.145L187.365 276.408L239.091 404.204L389.638 358.348L401.754 416.209L357.297 444.067L357.256 444.08L304.911 445.751L291.261 412.064L247.629 425.354L274.485 491.704L370.983 489.295L452.582 437.457L426.367 312.439L423.879 300.463L265.55 348.666Z" fill="white" fill-opacity="0.5"/>
</g>
</svg>
