<svg width="523" height="523" viewBox="0 0 523 523" fill="none" xmlns="http://www.w3.org/2000/svg">
<rect width="523" height="523" fill="white"/>
<path d="M249.46 458.689C253.27 470.389 257.77 482.479 268.86 488.999C288.34 500.459 305.08 489.849 321.32 478.719C325.36 475.949 335.74 466.879 339.07 465.499C341.28 464.579 345.92 464.309 348.65 463.589C442.16 438.979 472.48 338.179 467.32 251.019C462.86 175.829 433.12 75.7091 358.61 42.4691C290.2 11.9491 221.98 45.2991 179.91 100.909C166.37 118.809 155.65 138.819 146.63 159.319C138.86 155.459 130.94 153.129 122.33 151.909C107.21 149.769 90.7201 149.739 75.8001 153.169C68.1501 154.929 54.7501 159.129 53.3501 168.189C54.4801 194.069 51.4401 221.869 53.2101 247.539C54.0801 260.079 62.6101 264.609 72.9601 269.259C75.3101 294.019 95.4301 318.779 121.67 318.219C121.58 321.619 122.21 325.019 122.75 328.379C125.97 348.389 132.37 370.919 143.74 387.829C147.32 393.149 151.87 397.749 155.65 402.919C155.82 403.929 152.46 404.929 151.64 405.169C147.12 394.049 137.49 381.359 125.79 377.309C102.52 369.239 88.1501 388.059 89.7001 409.909C90.8001 425.359 104.06 452.859 117.52 461.029C141.13 475.369 164.53 454.149 184.45 442.739C186.03 441.839 193.26 437.539 194.31 437.639C211.01 447.879 229.8 456.569 249.47 458.699L249.46 458.689Z" fill="#F1DCC0"/>
<path d="M249.46 458.689C229.79 456.559 211 447.869 194.3 437.629C193.25 437.529 186.01 441.819 184.44 442.729C164.52 454.139 141.12 475.369 117.51 461.019C104.05 452.849 90.7898 425.349 89.6898 409.899C88.1398 388.039 102.51 369.229 125.78 377.299C137.48 381.349 147.11 394.039 151.63 405.159C152.45 404.919 155.8 403.919 155.64 402.909C151.86 397.739 147.31 393.149 143.73 387.819C132.36 370.909 125.96 348.379 122.74 328.369C122.2 325.009 121.57 321.609 121.66 318.209C95.4198 318.769 75.2998 294.009 72.9498 269.249C62.5998 264.599 54.0698 260.069 53.1998 247.529C51.4298 221.859 54.4698 194.069 53.3398 168.179C54.7398 159.119 68.1398 154.919 75.7898 153.159C90.7098 149.729 107.2 149.759 122.32 151.899C130.94 153.119 138.85 155.449 146.62 159.309C155.64 138.809 166.36 118.799 179.9 100.899C221.97 45.2893 290.19 11.9393 358.6 42.4593C433.11 75.6993 462.85 175.819 467.31 251.009C472.48 338.169 442.16 438.969 348.64 463.579C345.91 464.299 341.28 464.569 339.06 465.489C335.73 466.879 325.36 475.939 321.31 478.709C305.07 489.839 288.33 500.449 268.85 488.989C257.76 482.469 253.26 470.379 249.45 458.679L249.46 458.689ZM323.28 412.319C325.18 414.129 325.55 417.409 324.17 419.619C322.54 422.239 309.79 427.949 309.58 429.369C311.6 434.599 313.52 439.109 312.98 444.899C312.5 450.099 306.88 451.259 303.45 447.889C299.7 434.269 292.81 414.939 275.74 414.929C248.58 414.929 258.67 459.549 269.29 473.059C288.37 497.349 318 463.969 335.73 454.159C413.1 442.009 450.28 364.799 455.31 293.459C461.33 207.979 430.79 69.4193 333.54 46.5193C251 27.0793 188.8 91.5393 158.18 160.619C157.09 163.089 154.15 169.409 153.73 171.659C153.13 174.879 153.93 178.959 153.61 182.289C165.54 181.579 176.65 187.569 179.36 199.749C183.33 217.569 170.81 232.129 154.16 236.299C153.87 244.149 155.39 252.019 150.32 258.689C146.19 264.119 139.91 266.949 133.71 269.309C132.28 287.549 131.25 305.159 133.7 323.369C137.26 349.859 146.75 379.099 166.84 397.509C167.57 397.569 177.86 391.989 180.07 391.379C186.25 389.699 189.39 398.909 183.93 402.239C179.5 404.939 172.82 407.179 167.91 409.699C163.43 411.999 155.69 417.459 151.47 418.729C148.96 419.489 146.15 419.269 144.38 417.099C142.06 414.259 139.75 406.929 137.33 403.169C131.3 393.789 119.03 382.299 107.48 390.219C93.0998 400.079 107.41 431.339 115.43 442.059C124.86 454.659 134.62 457.029 148.94 450.189C165.49 442.279 182 428.989 198.72 420.539C201.77 418.999 204.63 417.349 207.58 420.339C210.47 423.279 209.22 428.219 205.56 429.859C218.06 437.579 231.94 443.509 246.51 446.099C245.76 438.629 245.67 432.379 247.76 425.119C255.97 396.559 288.34 395.849 303.75 418.589C304.73 418.829 315.74 409.849 320.45 410.819C321.16 410.969 322.72 411.779 323.26 412.289L323.28 412.319ZM95.0698 160.959C88.3498 161.339 71.8498 163.389 66.7198 167.579C62.4198 171.089 70.7298 174.179 73.5298 175.179C89.7898 169.849 108.44 169.529 125.15 173.049C130.93 174.269 131.62 176.449 137.79 173.219C144.26 169.819 140.95 168.179 136.11 166.079C124.58 161.079 107.51 160.249 95.0598 160.959H95.0698ZM63.6998 182.299V249.009C63.6998 250.439 67.0098 254.009 68.2398 254.959C81.6998 265.389 120.07 264.689 134.97 257.339C137.49 256.099 143.12 251.979 143.12 248.999V181.789C125.53 189.569 102.96 190.199 83.9998 187.719C77.0398 186.809 70.0198 185.359 63.6998 182.289V182.299ZM153.62 224.269C163.44 221.789 170.76 212.839 167.19 202.449C165.07 196.289 159.79 194.129 153.62 195.789V224.269ZM122.65 272.249C112.85 273.159 102.79 273.789 92.9098 273.259C90.8298 273.149 88.4698 272.379 86.4298 272.229C85.5898 272.169 85.6298 272.159 85.6798 272.979C85.7698 274.619 86.6398 276.889 87.1798 278.489C92.1798 293.279 104.58 305.979 120.87 306.719L121.13 284.959L122.65 272.239V272.249Z" fill="#483125"/>
<path d="M323.28 412.32C322.74 411.81 321.18 410.99 320.47 410.85C315.75 409.88 304.74 418.86 303.77 418.62C288.35 395.88 255.99 396.59 247.78 425.15C245.69 432.41 245.78 438.66 246.53 446.13C231.96 443.54 218.09 437.61 205.58 429.89C209.24 428.24 210.49 423.31 207.6 420.37C204.66 417.38 201.79 419.02 198.74 420.57C182.02 429.03 165.52 442.31 148.96 450.22C134.64 457.07 124.87 454.69 115.45 442.09C107.43 431.36 93.1102 400.11 107.5 390.25C119.05 382.33 131.32 393.82 137.35 403.2C139.77 406.97 142.08 414.29 144.4 417.13C146.17 419.3 148.97 419.51 151.49 418.76C155.72 417.49 163.46 412.03 167.93 409.73C172.84 407.21 179.51 404.97 183.95 402.27C189.41 398.94 186.26 389.72 180.09 391.41C177.88 392.01 167.59 397.59 166.86 397.54C146.77 379.13 137.28 349.9 133.72 323.4C131.28 305.19 132.31 287.58 133.73 269.34C139.92 266.98 146.21 264.15 150.34 258.72C155.41 252.04 153.89 244.18 154.18 236.33C170.83 232.16 183.35 217.6 179.38 199.78C176.67 187.6 165.56 181.61 153.63 182.32C153.95 178.99 153.15 174.91 153.75 171.69C154.17 169.44 157.11 163.12 158.2 160.65C188.82 91.57 251.02 27.11 333.56 46.55C430.81 69.45 461.35 208 455.33 293.49C450.31 364.83 413.12 442.04 335.75 454.19C318.01 463.99 288.39 497.37 269.31 473.09C258.69 459.57 248.61 414.95 275.76 414.96C292.83 414.96 299.72 434.3 303.47 447.92C306.9 451.3 312.51 450.13 313 444.93C313.54 439.14 311.62 434.62 309.6 429.4C309.81 427.99 322.56 422.27 324.19 419.65C325.57 417.44 325.2 414.16 323.3 412.35L323.28 412.32ZM208.24 159.5C203.35 164.39 205.76 173.17 209.57 178.05C218.19 189.09 235.72 190.45 246.26 181.3C249.79 178.24 252.44 172.11 247.28 169.31C242.88 166.92 242.36 169.94 239.48 172.03C235.13 175.19 230.45 176.49 225.19 174.42C216.08 170.84 221.5 163.37 216.56 159.07C213.67 156.55 210.86 156.88 208.23 159.51L208.24 159.5ZM307.35 171.41C301.2 172.25 300.44 178.74 301.84 183.68C306.33 199.54 329.92 204.91 342.17 194.78C346.11 191.52 350.92 184.33 344.9 180.57C339.69 177.32 337.62 182.76 334.4 185.01C329.44 188.47 320.1 188.2 316.53 182.96C313.77 178.91 314.64 170.4 307.34 171.4L307.35 171.41ZM249.41 200.38C243.89 201 243.29 206.8 245.61 210.95C252.81 223.83 274.67 225.98 286.83 219.86C291.29 217.61 298.79 210.95 293.51 206.01C288.85 201.66 283.79 208.37 279.62 210.14C271.55 213.57 262.17 211.73 256.27 205.28C254.2 203.02 253.61 199.9 249.42 200.37L249.41 200.38ZM394.89 381.92C409.19 374.11 424.1 362.85 432.43 348.53C434.5 344.97 437.94 340.43 433.86 336.93C427.25 331.27 424.21 340.09 421.06 344.15C402.28 368.32 373.6 383.6 342.24 379.11C315.47 375.28 311.2 349.51 335.76 338.77C343.69 335.3 350.35 335.69 358.42 333.96C374.74 330.46 392.07 317.83 397.61 301.71C399.32 296.73 401.85 284.98 392.77 286.33C387.22 287.16 387.23 295.94 384.99 300.57C370.68 330.12 340.04 317.42 318.73 336.22C303.9 349.3 303.25 369.86 318.73 382.66C333.03 394.48 355.85 393.44 373.01 390.02C374.94 389.64 380.51 387.71 381.66 387.73" fill="#FBF4E3"/>
<path d="M63.7002 182.301C70.0302 185.371 77.0402 186.811 84.0002 187.731C102.96 190.221 125.53 189.581 143.12 181.801V249.011C143.12 251.981 137.49 256.111 134.97 257.351C120.06 264.701 81.6902 265.391 68.2402 254.971C67.0102 254.021 63.7002 250.451 63.7002 249.021V182.311V182.301Z" fill="#005780"/>
<path d="M122.65 272.25L121.13 284.97L120.87 306.73C104.58 305.98 92.17 293.29 87.18 278.5C86.64 276.9 85.77 274.63 85.68 272.99C85.63 272.16 85.59 272.18 86.43 272.24C88.47 272.38 90.83 273.16 92.91 273.27C102.79 273.79 112.85 273.16 122.65 272.26V272.25Z" fill="#FBF4E3"/>
<path d="M95.0699 160.96C107.52 160.25 124.58 161.08 136.12 166.08C140.96 168.18 144.27 169.82 137.8 173.22C131.33 176.62 130.94 174.27 125.16 173.05C108.46 169.52 89.8099 169.85 73.5399 175.18C70.7399 174.18 62.4299 171.09 66.7299 167.58C71.8599 163.4 88.3599 161.35 95.0799 160.96H95.0699Z" fill="#005780"/>
<path d="M153.62 224.269V195.789C159.8 194.129 165.08 196.289 167.19 202.449C170.76 212.839 163.44 221.789 153.62 224.269Z" fill="#005780"/>
<path d="M392.76 286.33C401.84 284.98 399.31 296.72 397.6 301.71C392.07 317.84 374.73 330.46 358.41 333.96C350.34 335.69 343.68 335.3 335.75 338.77C311.2 349.52 315.46 375.28 342.23 379.11C373.59 383.6 402.27 368.32 421.05 344.15C424.2 340.1 427.23 331.27 433.85 336.93C437.93 340.43 434.49 344.96 432.42 348.53C424.09 362.85 416.76 369.8 402.46 377.61C403.49 378.29 394.08 381.91 392.75 382.79C395.08 381.95 391.42 383.67 392.75 382.79C388.88 384.19 385.04 386.7 383.5 387.05C378.76 388.13 384.87 387.77 381.64 387.71C380.49 387.69 374.91 389.62 372.99 390C355.83 393.42 333.01 394.46 318.71 382.64C303.23 369.84 303.88 349.28 318.71 336.2C340.02 317.4 370.67 330.1 384.97 300.55C387.21 295.93 387.2 287.14 392.75 286.31L392.76 286.33Z" fill="#483125"/>
<path d="M307.35 171.409C314.65 170.409 313.78 178.909 316.54 182.969C320.1 188.209 329.45 188.479 334.41 185.019C337.63 182.769 339.7 177.329 344.91 180.579C350.92 184.329 346.12 191.529 342.18 194.789C329.93 204.919 306.34 199.539 301.85 183.689C300.45 178.749 301.21 172.259 307.36 171.419L307.35 171.409Z" fill="#483125"/>
<path d="M208.24 159.5C210.87 156.87 213.67 156.54 216.57 159.06C221.51 163.37 216.09 170.83 225.2 174.41C230.46 176.48 235.14 175.18 239.49 172.02C242.37 169.93 242.88 166.91 247.29 169.3C252.45 172.1 249.79 178.23 246.27 181.29C235.73 190.44 218.2 189.08 209.58 178.04C205.77 173.16 203.36 164.38 208.25 159.49L208.24 159.5Z" fill="#483125"/>
<path d="M249.41 200.38C253.6 199.91 254.2 203.029 256.26 205.289C262.16 211.739 271.53 213.57 279.61 210.15C283.78 208.38 288.85 201.67 293.5 206.02C298.78 210.96 291.28 217.62 286.82 219.87C274.66 225.99 252.8 223.84 245.6 210.96C243.28 206.81 243.88 201.01 249.4 200.39L249.41 200.38Z" fill="#483125"/>
</svg>
